<svg id="Layer_1" data-name="Layer 1" xmlns="http://www.w3.org/2000/svg" viewBox="0 0 460.02 405.91"><defs><style>.cls-1{fill:#ebe83d;}.cls-2{fill:#afc936;}.cls-3{fill:#fff;}.cls-4{fill:#8ab4e0;}.cls-5{fill:#f15f28;}.cls-6{fill:#c94c27;}.cls-7{fill:#4379bd;}.cls-8{fill:#dd4126;}</style></defs><title>character</title><path class="cls-1" d="M181.13,276.41l-66.53-16.6c-12-3-24.28-6.11-34.64-12.89s-18.64-18-18.47-30.42c.24-17.76,16.67-30.65,32.31-39.08,42.6-22.95,91-33.73,133-57.84C271.23,94,306,55,340,16.57Q331.49,60.18,323,103.78c-2.73,14-5.46,28.46-2.22,42.33,3.94,16.89,16.13,30.46,27.88,43.22L382.34,226c9.06,9.83,18.8,22,16,35-3.49,16.17-23.19,22.08-39.61,24.07a465.22,465.22,0,0,1-85,2.51c26.79,18.34,59,26.9,91,32.61,18.72,3.35,40.83,4.79,53.88-9,4.37-4.64,7.15-10.5,10.48-15.93s7.57-10.73,13.5-13,13.84-.54,16.55,5.22-3.2,14-9.19,11.83c6.07,0,12.49,4,13.25,10.07s-6.48,12-11.65,8.8a62.75,62.75,0,0,1,20.28,19.46,32,32,0,0,1-25.54,5.78,17,17,0,0,1,8.88,15.94,64.82,64.82,0,0,1-12.78,2.59c6.69,1.77,5.62,12.85-.46,16.14s-13.56,1.32-20.17-.72L259.35,327.14l-3.22,61.69c-.13,2.41-.23,4.95.87,7.1,2.45,4.76,8.94,5,14.12,6.38s10.33,7.82,6.35,11.4a129.23,129.23,0,0,1-44.84-1.8A6.73,6.73,0,0,1,228.7,410c-1.24-1.51-1-3.71-.67-5.64a152.08,152.08,0,0,0-1.34-53.94c-1.52-7.38-4.67-15.79-11.92-17.84-5.81-1.65-12.12,1.82-15.55,6.79s-4.59,11.14-5.42,17.12a232.51,232.51,0,0,0-1,55.36c-6.41-1.18-12.94.74-19.45,1.2s-14-1.2-17.12-6.95,3.14-14.71,8.9-11.65L162,328,46.37,331.17c-6.15.17-12.48.31-18.26-1.8s-11-7-11.5-13.17,5.29-12.55,11.27-11.12c-4.56-4.14-9.44-8.94-9.8-15.1s7.21-12.3,12-8.36l-9-16.91A14.13,14.13,0,0,1,37,266.55a33.16,33.16,0,0,1-3.39-20.17,25.38,25.38,0,0,1,12.8,9.38,18.65,18.65,0,0,1-2.63-18.65c6.58,0,7.71,9.16,10.1,15.29,4.54,11.63,18.76,15.49,31,17.8,31.71,6,63.81,11.92,96,9.94" transform="translate(-14.27 -11.47)"/><path class="cls-2" d="M181.8,274l-52.28-13c-15.7-3.92-32.88-6.71-46.87-15.3-12.59-7.73-22.33-22.31-17.21-37.4C70,194.88,83.22,186,95.06,179.58,124,163.9,155.59,154.07,186,141.71c29.23-11.88,56.2-26.86,80.61-46.95C294.25,72,318.1,45.09,341.78,18.34L337.6,15.9q-8.52,43.62-17.06,87.22c-2.44,12.53-4.92,25.4-3.2,38.2,1.59,11.81,7.08,22.4,14.16,31.85,16.15,21.53,36.74,39.46,53.95,60.09,7.79,9.34,15.42,22.64,7.37,34.23-5.7,8.21-16.41,11.7-25.74,13.68-14.63,3.12-30.1,3.77-45,4.4a475.69,475.69,0,0,1-48.36-.49c-2.64-.16-3.16,3.37-1.26,4.66,26.07,17.61,56.66,26.34,87.29,32.08,12.76,2.39,26,4.42,38.89,2.13C412,321.58,421,314,427.67,302.5c4-6.83,8.42-16,16.74-18.32,3.9-1.09,9.59-.41,11.91,3.38s-.77,10.54-5.76,9.26l-.67,4.91c4.12.17,8.62,2,10.24,6.11s-2.48,10.48-7.38,8.1c-2.87-1.4-5.29,2.61-2.52,4.31a62.8,62.8,0,0,1,19.38,18.57l.9-3.42a30.49,30.49,0,0,1-23.61,5.53c-2.67-.48-4.52,3.06-1.93,4.57a15,15,0,0,1,7.64,13.78l1.83-2.41a70.37,70.37,0,0,1-12.11,2.5,2.51,2.51,0,0,0-.67,4.91c3.08,1.08,3.18,4.86,2.22,7.48-1.38,3.8-4.84,5.26-8.74,5.48-8,.45-16.71-3.58-24.24-5.9L361.24,356,260,324.73a2.52,2.52,0,0,0-3.16,2.41l-2,37.81-.93,17.91c-.24,4.52-1.36,10.12.91,14.33a12.14,12.14,0,0,0,6.93,5.41c4,1.43,10.35,1.12,13,4.86,3.3,4.63-1.43,4.29-4.79,4.54-2.5.19-5,.31-7.51.35a126.79,126.79,0,0,1-20-1.19c-2.6-.36-6.88-.48-9.24-1.66-2-1-2.48.95-3-3.61a27.54,27.54,0,0,1,.64-4.53,156.35,156.35,0,0,0,1.32-17.44,149.79,149.79,0,0,0-3.19-34.12c-1.54-7.22-4.51-15.72-11.83-18.91-7-3.06-14.9.41-19.37,6.14-6.89,8.84-7.2,22.11-8.06,32.81a237.18,237.18,0,0,0,.43,42.05l3.17-2.41c-8.48-1.2-16.7,2-25.1,1-3.64-.44-8.38-1.88-10-5.59s1.6-9.82,6.08-8c1.49.61,3.24-.93,3.17-2.41L164.49,328a2.54,2.54,0,0,0-2.5-2.5l-82.73,2.3c-13.17.37-26.47,1.32-39.64,1-6-.16-12.6-1.19-17-5.7-2.37-2.44-4-5.66-3.36-9.12.72-3.62,4-7,7.93-6.43,2.24.34,4.47-2.31,2.43-4.17-3.37-3.1-7.26-6.5-8.63-11-1.29-4.3,2.57-12,7.75-8.51,2.19,1.46,4.53-1.34,3.42-3.42l-9-16.91-.9,3.42a11.85,11.85,0,0,1,12.89,1.45,2.51,2.51,0,0,0,3.92-3,32.91,32.91,0,0,1-3-18.91l-3.17,2.41A24,24,0,0,1,44.2,257c1.91,2.52,6.25.07,4.32-2.53a17,17,0,0,1-2.38-16.71l-2.41,1.83c5.21.44,6.16,9.6,7.69,13.46a24.24,24.24,0,0,0,8.14,10.5c8.91,6.69,20.65,8.3,31.29,10.29,29.68,5.54,59.71,10.5,90,8.78,3.2-.18,3.22-5.19,0-5-31.18,1.77-62-3.58-92.49-9.32-10.49-2-24.22-4-30.6-13.7-4.46-6.79-3.68-19.14-14-20a2.54,2.54,0,0,0-2.41,1.84A21.48,21.48,0,0,0,44.2,257l4.32-2.53A29.89,29.89,0,0,0,34.22,244c-1.69-.6-3,.94-3.16,2.41a37.29,37.29,0,0,0,3.73,21.43l3.92-3a17.18,17.18,0,0,0-18.94-2.23,2.54,2.54,0,0,0-.9,3.42l9,16.91,3.42-3.42c-5.71-3.81-12.74.36-15,6.25-3.17,8.37,4.21,16,9.81,21.14l2.43-4.18C17.44,301,10.83,313.51,16.14,322.73c7.45,12.93,24.59,11.1,37.21,10.74l108.64-3-2.5-2.5,3.11,66.54,3.16-2.41c-9.52-3.91-15.83,9.53-10.85,16.67,8.51,12.22,25.58,3.91,37.2,5.55,1.43.2,3.34-.61,3.16-2.41a239.39,239.39,0,0,1-.82-36.32c.6-10.68.39-24.92,6.48-34.2,3-4.52,8.59-8.14,14.07-6,4.74,1.87,7,7.22,8.31,11.77,3.25,11.14,4.07,23.34,4,34.89a154.41,154.41,0,0,1-1,16.79c-.47,4-2.37,9.51.64,13,2.58,3,8,3.16,11.5,3.74A133,133,0,0,0,255,417.27a128.78,128.78,0,0,0,16.9-.42c3.81-.35,7.9,0,9.23-4.3,2.2-7.1-6.18-12-11.78-13.22s-10.72-2-10.76-9.05c0-6.76.7-13.61,1.05-20.36l2.24-42.78-3.17,2.41,96.46,29.79,48.7,15.05c7.51,2.32,15,5.05,22.68,6.84,5.38,1.25,11.61,1.83,16.61-1.06,7.54-4.36,9.06-17.47-.14-20.71l-.66,4.91a77.82,77.82,0,0,0,13.44-2.68,2.58,2.58,0,0,0,1.84-2.41,20,20,0,0,0-10.11-18.1l-1.93,4.57a35.43,35.43,0,0,0,27.46-6,2.54,2.54,0,0,0,.9-3.42,68.82,68.82,0,0,0-21.18-20.36l-2.52,4.31c6.71,3.27,14.74-1.74,15.39-9.16.75-8.69-8.09-14-15.73-14.36-2.82-.12-3.38,4.21-.66,4.91,12.11,3.11,17.28-14.26,7.46-20.49-13.46-8.54-25.44,5.25-31.59,15.8-4.63,7.93-9.22,15.24-17.86,19.21-7.11,3.27-15.2,4-22.94,3.75-17.21-.46-34.8-4.75-51.36-9.2-20.51-5.51-40.32-13.36-58-25.29l-1.27,4.66c29.27,1.76,59.16,1.32,88.21-2.93,17.22-2.52,40.72-10.94,39.35-32.35-.74-11.54-8.63-21.18-16.06-29.41-10.15-11.24-20.52-22.29-30.77-33.43-9.1-9.88-18.68-19.68-25.3-31.47-7.61-13.55-8.4-28.06-6.09-43.17,2.53-16.65,6.29-33.17,9.53-49.7l9.85-50.39c.44-2.25-2.39-4.45-4.18-2.43-22.16,25.05-44.46,50.19-69.91,72-26.56,22.76-56.19,39.2-88.61,52.08-31.06,12.34-64.21,22.14-92.89,39.67-11,6.71-22,15.79-26.21,28.39-4.33,12.9.74,26.28,10,35.62,12.49,12.54,30.53,16.48,47.09,20.62l62.73,15.66c3.12.77,4.45-4.05,1.33-4.83Z" transform="translate(-14.27 -11.47)"/><path class="cls-3" d="M229.73,162.77c-.93-.43-1.86-.87-2.83-1.21-4.85-1.71-10.31-.9-15,1.13s-8.87,5.18-13,8.31a56.18,56.18,0,0,0-9.48,8.46c-4.86,5.88-7.12,13.43-9,20.81-1.65,6.29-2.93,13.67,1.18,18.7,2.15,2.62,5.43,4.06,8.71,4.86,8.54,2.1,17.77.4,25.53-3.73s14.13-10.56,19.09-17.82c3.72-5.44,6.78-11.79,6.2-18.35a25.44,25.44,0,0,0-1.65-6.64,44.46,44.46,0,0,0-10.53-16.14" transform="translate(-14.27 -11.47)"/><path class="cls-4" d="M231,160.61c-14.26-6.52-26.83,2.69-37.62,11.57a40.16,40.16,0,0,0-12.28,17.22c-2.44,6.39-4.78,13.78-4.78,20.69,0,14.64,15.22,18.52,27.34,16.67,14.57-2.23,26.57-12.46,34.31-24.6,4.09-6.43,6.76-13.77,5.11-21.43-1.74-8.11-6.65-15.52-12.41-21.35-2.26-2.29-5.8,1.24-3.53,3.54,5.14,5.2,9.65,11.86,11.12,19.14,1.69,8.31-3.12,16.17-8.07,22.44-9,11.42-23.39,20.33-38.45,17.1-9.45-2-11.48-9-9.67-17.7,1.36-6.51,3.3-13.45,6.73-19.19,3.69-6.17,9.74-10.53,15.5-14.65,7.21-5.15,15.45-9.12,24.17-5.13,2.91,1.33,5.45-3,2.53-4.32Z" transform="translate(-14.27 -11.47)"/><path class="cls-3" d="M265,237.4c-6.7-3.5-11-10.6-12.49-18s-.31-15.13,1.79-22.4c1.79-6.16,4.39-12.31,9-16.78s11.57-7,17.63-4.87c4.59,1.59,8.06,5.54,10.05,10s2.65,9.32,3.06,14.15q.5,5.92.51,11.86c0,4.32-.2,8.78-2.05,12.68-2.42,5.13-7.34,8.64-12.44,11.13s-11,4.17-16.22,2.21" transform="translate(-14.27 -11.47)"/><path class="cls-4" d="M266.22,235.24c-12.39-7.07-13.39-22.33-10.28-34.85,2.58-10.41,10.45-27.47,24.28-22.65,12.66,4.42,12,24.5,11.77,35.19-.16,7.3-2.3,13-8.51,17.31-5.47,3.75-12.4,6.67-19,4.66-3.08-.93-4.4,3.9-1.33,4.83,14.15,4.27,31.75-7.47,33.55-21.93a80.29,80.29,0,0,0-1.6-28c-1.68-6.76-5.54-13.44-12.18-16.31-15.77-6.82-27.29,9.95-31,22.85-4.46,15.35-3.56,34.44,11.85,43.24,2.8,1.59,5.32-2.72,2.52-4.32Z" transform="translate(-14.27 -11.47)"/><path class="cls-5" d="M203.85,235.09a53.58,53.58,0,0,0,33.35,15.53c2.72.22,5.46.24,8.19.25l5.87,0A71.73,71.73,0,0,1,221,261.16a20.17,20.17,0,0,1-8.16-.44c-4.94-1.56-8.35-6.27-9.78-11.24s-1.17-10.25-.91-15.41" transform="translate(-14.27 -11.47)"/><path class="cls-6" d="M202.08,236.86a57.87,57.87,0,0,0,21.7,13.49c9,3.07,18.13,3,27.48,3.05L250,248.74c-9.21,5.53-19.87,9.48-30.68,10.06-14.33.77-15.23-14-14.71-24.73.15-3.22-4.85-3.21-5,0-.54,11.09.6,26.68,14.11,29.45,6.19,1.26,13.61-.49,19.58-2.13a76.66,76.66,0,0,0,19.22-8.33,2.52,2.52,0,0,0-1.26-4.66c-8.33,0-16.54.12-24.59-2.36a52.29,52.29,0,0,1-21.06-12.71c-2.3-2.25-5.84,1.28-3.53,3.53Z" transform="translate(-14.27 -11.47)"/><path class="cls-5" d="M243.06,237.92a122.55,122.55,0,0,1-13.89-3.46c-3.07-1-6.26-2.15-8.31-4.64s-2.37-6.65.14-8.66a7.93,7.93,0,0,1,3.85-1.42,26.31,26.31,0,0,1,14.62,2c3.54,1.59,6.92,4.28,7.87,8.05s-1.63,8.45-5.52,8.49" transform="translate(-14.27 -11.47)"/><path class="cls-6" d="M243.73,235.51a122.71,122.71,0,0,1-13.9-3.46c-3.14-1-13.18-6.19-5.68-9.63,3.59-1.65,9.58-.26,13.12,1.11,2.54,1,5.3,2.53,6.78,4.92s1.46,6.87-2.23,7.35c-3.14.41-3.19,5.42,0,5A9.46,9.46,0,0,0,249,227.19c-3.72-7.93-14.52-10.77-22.54-10.14-6.74.52-12.22,5.39-8.73,12.47,3.9,7.92,17.09,9.34,24.63,10.81,3.14.61,4.49-4.21,1.33-4.82Z" transform="translate(-14.27 -11.47)"/><path class="cls-7" d="M223.5,193.48c-4.65-.5-9.21,0-13.87.11a26.77,26.77,0,0,1-7.73-.65q-3.85-.23-3.58-4.37,1.56,0,3.12,0c5.05,0,10.1.13,15.15.2,1.41,0,5.89-.7,7,.1,3.57,2.54-.77,2.44-2,2.8-3.09.88-1.78,5.7,1.33,4.82,2.82-.81,6.45-.42,8.2-3.33,1.62-2.7.25-6.12-2.16-7.79-3.17-2.19-7.84-1.55-11.45-1.59-6-.08-12-.42-18-.23-3,.09-6.1.62-7.31,3.75s.38,6,2.81,7.92c7.82,6.05,19.48,2.3,28.45,3.26,3.2.35,3.18-4.66,0-5Z" transform="translate(-14.27 -11.47)"/><path class="cls-7" d="M286.3,207.24c-3.71.23-24.32,2-24.75-2.55-.24-2.6,10.15-3.61,11.95-3.65a27.37,27.37,0,0,1,6.12.52,24.3,24.3,0,0,1,3,.81q4.51,4.49,0,4.22c-3.17.3-3.2,5.3,0,5,2.83-.26,5.67-.79,7.12-3.47a6.82,6.82,0,0,0-1.64-8.16c-5.65-5.36-16.91-4.58-23.74-2.49-4.87,1.49-12.85,6.05-6.51,11.51,3,2.61,8.07,3,11.87,3.4a104.48,104.48,0,0,0,16.5-.14c3.19-.2,3.22-5.2,0-5Z" transform="translate(-14.27 -11.47)"/><path class="cls-5" d="M339.36,14.26l32.58-.12a26.22,26.22,0,0,1,8.34.87c4.71,1.56,8.16,5.68,10.39,10.11a34.61,34.61,0,0,1,2.64,23.63c-1.83,7.39-5.85,16-.92,21.84,2.85,3.37,7.67,4.14,12.07,4.56a209.6,209.6,0,0,0,23.37.89,84.37,84.37,0,0,1-47.69,28.62c-3.47.71-7.12,1.19-10.51.16-5.14-1.55-8.74-6.37-10.42-11.47s-1.77-10.56-2.13-15.91a158.43,158.43,0,0,0-17.6-62.68" transform="translate(-14.27 -11.47)"/><path class="cls-6" d="M339.36,16.76l19.17-.07c6.32,0,14.14-1.22,20.28.52C392.23,21,393.13,40.3,390.08,51.1c-2.22,7.83-5.27,18.2,3.21,23.53,4.15,2.61,9.34,2.89,14.08,3.27,6.81.55,13.63.73,20.46.64l-1.76-4.27a83.82,83.82,0,0,1-29.28,22.37,75.88,75.88,0,0,1-18.19,5.78c-9,1.58-15.1-2.77-17.48-11.44-1.81-6.61-1.41-13.82-2.17-20.6A160.7,160.7,0,0,0,341.64,13.5c-1.47-2.86-5.79-.33-4.31,2.52a159.23,159.23,0,0,1,15.48,46.25c1.36,8,1.49,16.07,2.44,24.11.7,5.93,2.37,11.92,6.59,16.35,9,9.47,24.33,3.78,34.59-.52a87.78,87.78,0,0,0,33.17-24.4c1.34-1.58.54-4.3-1.77-4.27-6.5.09-13-.07-19.48-.56-6.66-.5-15.8-.92-15.81-9.73,0-5.59,2.78-10.93,3.7-16.39a37.73,37.73,0,0,0-.71-15.93c-2.35-8.87-8.18-17.65-17.86-19-5.93-.83-12.22-.24-18.19-.22l-20.12.07c-3.21,0-3.22,5,0,5Z" transform="translate(-14.27 -11.47)"/><path class="cls-8" d="M58.24,116.07c-15.3,1.44-24.11,14.64-27.83,28.41-2.2,8.14-3.95,17.19-3.28,25.65.45,5.66,1.4,12.54,7.86,13.83,5.95,1.18,13.6.82,18.58-3,5.3-4.09,6.72-10.92,7.56-17.2,1.22-9.05,3.45-18.92,3.1-28.05A18.69,18.69,0,0,0,54.93,120c-2.76-1.67-5.28,2.66-2.52,4.32,11.08,6.7,5.8,22.59,4.51,33.05-.65,5.34-.85,11.51-3.6,16.31-2.93,5.13-10.34,7-15.9,5.52-6.73-1.75-5.67-11.88-5.15-17.4a93.93,93.93,0,0,1,3.43-17.66c3.2-10.77,10.3-21.93,22.54-23.08,3.17-.3,3.2-5.3,0-5Z" transform="translate(-14.27 -11.47)"/><path class="cls-8" d="M45.51,164.94l23.07,10c2.92,1.26,5.47-3,2.53-4.32L48,160.63c-2.92-1.27-5.47,3-2.53,4.31Z" transform="translate(-14.27 -11.47)"/><path class="cls-8" d="M73.24,127.36c3.74,8.26,14.55,28,26.42,22.92,5.89-2.51,6.42-10.24,6.44-15.74,0-8.6-2.19-17-4.38-25.29-.83-3.1-5.66-1.79-4.83,1.33a133.93,133.93,0,0,1,3.7,16.66c.53,4,2.08,13.85-1.23,17.06a6.21,6.21,0,0,1-6.51.76,14.82,14.82,0,0,1-2.86-2.2,43.83,43.83,0,0,1-4.29-4.64,59,59,0,0,1-8.14-13.38c-1.33-2.93-5.64-.39-4.32,2.52Z" transform="translate(-14.27 -11.47)"/><path class="cls-8" d="M113.17,92.24A212.75,212.75,0,0,1,134,122.55c1.59,2.8,5.91.29,4.32-2.52A220.36,220.36,0,0,0,116.71,88.7c-2-2.48-5.57,1.07-3.54,3.54Z" transform="translate(-14.27 -11.47)"/><path class="cls-8" d="M134,81.47A179.63,179.63,0,0,0,178.39,58l-3.77-2.16a143.89,143.89,0,0,1-10.06,47c-.69,1.75,1.39,3.66,3.08,3.07a289.32,289.32,0,0,0,46-20.41c2.82-1.55.3-5.87-2.52-4.32a282,282,0,0,1-44.77,19.91l3.08,3.08a147.86,147.86,0,0,0,10.23-48.33c.08-1.78-2.22-3.27-3.76-2.16a174.62,174.62,0,0,1-43.18,22.93c-3,1.09-1.71,5.92,1.33,4.82Z" transform="translate(-14.27 -11.47)"/></svg>