<svg id="Layer_1" data-name="Layer 1" xmlns="http://www.w3.org/2000/svg" viewBox="0 0 417.38 417.62"><defs><style>.cls-1{fill:#bad981;}.cls-2{fill:#3f803d;}.cls-3{fill:#e7ec9f;}</style></defs><title>block</title><path class="cls-1" d="M13.68,12.32q194.1-1.89,388.21-.12c2.56,0,5.33.11,7.34,1.71s2.78,4.5,3.28,7.13C419.67,58.47,417,97,415.09,135a2745.48,2745.48,0,0,0,.35,281.54c-19.8,3.06-39.69-3.49-59.66-5.16-21.84-1.82-43.68,2.23-65.39,5.22C202.2,428.75,112.66,423.4,23.8,418c-2.64-.16-5.5-.41-7.44-2.21a11,11,0,0,1-2.57-4.67c-14-40.38-8-84.53-5.49-127.22,5.36-90.23-5.71-181,1.47-271.06" transform="translate(-2.32 -8.84)"/><path class="cls-2" d="M13.68,14.82Q170,13.31,326.24,14.15q18.92.11,37.82.24c13,.09,26.4-.66,39.38.34,7.2.56,7.1,9,8,14.6,1.07,6.78,1.8,13.6,2.32,20.44,1,12.87,1.11,25.79.84,38.7-.51,25.44-2.32,50.85-3.32,76.28q-1.51,38.64-1.94,77.33-1,87.27,3.62,174.48l1.83-2.41c-13.61,1.9-27.15-.55-40.56-2.76-12.22-2-24.33-3.31-36.73-2.79-26.22,1.1-52.15,6.67-78.27,9.1-52.14,4.86-104.61,4.37-156.88,2.12-26.33-1.14-53-1.78-79.2-4.34-4.22-.42-5.82-1.88-7.23-5.87-.91-2.57-1.69-5.21-2.42-7.84a158.2,158.2,0,0,1-4.05-19.51,236.72,236.72,0,0,1-2.07-37.54c.34-24.89,3.09-49.67,4.14-74.53,1.1-26.18.95-52.4.43-78.59C10.74,132,7.61,72.37,12.27,12.86c.25-3.21-4.75-3.19-5,0-4.27,54.59-2,109.34-.67,164,.66,27.18,1.08,54.38.31,81.56-.75,26.36-3.54,52.6-4.38,78.95-.79,24.69.44,50,8.55,73.58,1.23,3.59,2.59,6.72,6.22,8.37,4.79,2.17,11.18,1.5,16.3,1.81q20.61,1.23,41.22,2.36c54.24,2.88,108.66,4.53,162.9.93q23-1.52,45.86-4.39c15.08-1.92,30.08-4.6,45.23-5.86a180.45,180.45,0,0,1,45,2.2c14.07,2.33,28,4.6,42.29,2.61a2.49,2.49,0,0,0,1.84-2.41q-4.19-80.22-3.74-160.6c.32-52.68,3.33-105.16,5.12-157.79.87-25.63.59-51.56-4.22-76.84-.68-3.54-1.52-7.33-4.61-9.58-4.4-3.21-11.5-2.08-16.56-2.12Q374,9.45,354.11,9.32q-79.64-.54-159.27-.47-90.59.09-181.16,1c-3.22,0-3.23,5,0,5Z" transform="translate(-2.32 -8.84)"/><path class="cls-3" d="M38.25,86.21c-3.63-7.24-5.32-17,0-23.86,4.08-5.24,12.31-8,17.92-3.52,6.14,4.88,6.39,14.48,5.66,21.6a47.11,47.11,0,0,1-1.1,6.26c-.28,1.13-.59,2.28-1,3.38-.51,1.52-.28,2.23-1.84,2.09s-2-2.24-2.06-3.65a5.68,5.68,0,0,1,3.51-5.3c8-3.82,15.7,4.51,21.17,9.15a65.89,65.89,0,0,0,17.07,10.49c13.24,5.58,28,7.06,42.18,5.86,16-1.35,31.59-5.77,46.89-10.54,10.4-3.24,23.51-7.82,25.75-20,1.77-9.6-4.92-19.79-15.56-17.13C184.2,64.17,182.11,79,181.83,90.05c-.31,11.85,3.67,23.27,15.72,27.4s24.78-.06,35.84-4.76c13.72-5.81,27.24-14.11,42.35-15.56,15.53-1.49,28.64,7,38.86,17.89,5.32,5.69,10.18,12.49,11.16,20.41,1,7.74-2.1,15.39-6.9,21.36a47.2,47.2,0,0,1-17.2,12.88,90.17,90.17,0,0,1-11.35,4.27c-1.91.59-3.83,1.14-5.76,1.67-1.4.38-4.42,1.81-5.81,1.52-2.94-.64.09-4,2.18-4.58a15.24,15.24,0,0,1,4.86-.31,40.14,40.14,0,0,1,11.15,2.27,43.09,43.09,0,0,1,18.14,12.27c2.55,2.92,5.48,6.64,5.53,10.66.06,5.41-5.28,6.7-9.56,7.94-7.93,2.32-15.91,4.53-24,6.4-16.23,3.75-33.19,6.17-49.79,3.5-15.93-2.57-29.21-12.64-45.07-15.1s-32.35-.86-48.21-.66c-4.15,0-8.3.08-12.45.15-2.89,0-6,0-8.57,1.58-5.3,3.23-6,11.41-7.44,16.85l-6.94,25.61a2.53,2.53,0,0,0,1.75,3.07l18.86,4.62a2.54,2.54,0,0,0,3.08-3.08c-1.53-7.38-10.26-10.62-16.85-7.76-9.14,4-10.92,15-11.34,23.79-.55,11.85-2.71,21.9-11.84,30.22a36.9,36.9,0,0,1-13.83,8c-2.62.8-15.53,3.85-11.83-2.89,3.59-6.53,13.83,3.05,16.51,6.17a55.45,55.45,0,0,1,8,13.3c4.22,9.29,7.05,19.2,12,28.14a66.73,66.73,0,0,0,21.16,22.81c6.17,4.13,17.06,10.4,20.75.05,1.94-5.43,1.24-12,1.71-17.63q1-11.73,3.08-23.32a253.37,253.37,0,0,1,11.9-43l-4.18,1.1c10.61,13.32,15.79,29.64,19.3,46.08,1.8,8.39,3.19,16.87,4.7,25.32,1.25,7,1.66,15.67,5,22,7.42,14.19,23.92-3,28.42-10.52,7.56-12.65,9.39-27.85,11-42.22l-4.66,1.26a289.9,289.9,0,0,0,26.68,43.53c6.56,8.81,17.55,23.59,29.94,15,4.79-3.33,7.17-9.32,12.21-12.28,7.22-4.25,17.84.25,25.47,1.3,17.45,2.38,35.07,1.42,52.55-.1,5.82-.5,15.29.37,19.17-5.1,4.57-6.44,3.07-17.39,1.2-24.48a2.6,2.6,0,0,0-2.41-1.84c-8.33-1.08-15.32,6-15.63,14.14-.28,7.29,5.07,18.79,13.5,19.14s10.8-11.37,11.77-17.69a71.12,71.12,0,0,0-1.11-25.35c-3.8-18.2-12.2-35-18-52.62-2.84-8.66-5.18-17.63-5.51-26.78-.38-10.3,2.32-19.33,6.73-28.56s8.51-18.16,6.67-28.52c-.95-5.34-3.1-10.37-4.12-15.69-1.24-6.46.38-12.51,2.44-18.6,3.58-10.56,6.16-19.62,1.65-30.34-2-4.8-4.39-9.37-5.85-14.41a91.47,91.47,0,0,1-3.13-20.21c-.66-11.2.25-22.62-1.22-33.74-1-7.94-4.85-15.15-13.62-15.73-4.68-.31-10.44,1.75-14.21-1.89-3.25-3.13-5.13-5.93-10-6.4-9.05-.88-18.2,7.18-27,2.77-4.62-2.31-7.91-6.63-12.27-9.35a26.7,26.7,0,0,0-14.72-3.73c-6.05.1-12,1.59-17.92,2.74A93.67,93.67,0,0,1,244.19,36c-24.84-.64-50.59-8.56-74.63,1.22-2.94,1.2-1.65,6,1.33,4.83,19.39-7.9,40.27-3.83,60.4-1.9,9.6.91,19.29,1.39,28.88,0s20.51-5.7,30.26-2.52c8,2.63,12.52,11.2,21,13,8,1.71,15-3.29,22.72-3.76,5.14-.32,6.38,3.18,9.84,6,2.95,2.38,6.55,2.7,10.21,2.55,4.79-.2,9.86-1,12.88,3.61,2.54,3.91,2.53,9.3,2.72,13.78.87,20.05-.57,40.05,8,58.77,2.27,5,4.63,9.79,4.44,15.38-.19,5.39-2.23,10.53-3.94,15.58-2.94,8.63-4.28,16.38-1.93,25.34,1.38,5.27,3.52,10.43,3.71,15.93s-1.81,10.88-4,15.86c-3.55,7.92-7.66,15.39-9.12,24.06-2.57,15.29,1.4,30.63,6.46,45,6,16.94,14,33.47,17,51.29,1.52,9,1.55,18.4-1.27,27.12-1.23,3.77-4.23,8.52-8.71,4.26a17.26,17.26,0,0,1-4.6-8.23c-1.6-6.75,2.76-14,10.25-13l-2.41-1.83c1.44,5.49,2.06,11.51.69,17.11-1.48,6-7.37,5.35-12.47,5.81-9.44.85-18.89,1.61-28.37,1.82a165.26,165.26,0,0,1-29.41-1.62c-7.49-1.17-15.73-4.25-23.27-1.84-6.35,2-9.26,7.72-13.72,12.14-7.61,7.54-15.58.22-20.81-6.31a272.87,272.87,0,0,1-30.72-48.82c-1.22-2.45-4.42-1-4.66,1.26-1.46,13.47-3.18,27.84-10.26,39.7-3,5-9,13.37-15.67,13.18-6.33-.19-7.13-15.44-8-20.28-4.89-26.74-8.37-54.83-25.85-76.78-1.29-1.61-3.6-.45-4.18,1.11a256.21,256.21,0,0,0-15.75,76.95c-.12,2.41.23,6.68-1.81,8.51-2.53,2.28-9-2.29-11.24-3.69A61.59,61.59,0,0,1,114.62,355c-7.55-8.66-11.46-19.16-15.6-29.7-3.43-8.73-7.17-17.65-13.78-24.51-5-5.2-16.52-12.57-22.43-4.43-4,5.54-.58,12.63,6,12.73,9.22.13,18.35-3.77,25.36-9.57a40.09,40.09,0,0,0,14.49-27.22c.68-7.12-.27-14.8,3.14-21.38,1.63-3.14,4.29-6,8-6.31,3.54-.29,6.88,1.45,7.63,5.09l3.08-3.08L111.68,242l1.75,3.08,7.7-28.46c1.46-5.38,1.91-11.51,8.73-11.88,5-.28,10.08-.13,15.09-.2,9.52-.11,19-.26,28.55-.34s18.75.26,27.7,3.47c8.56,3.07,16.44,7.72,25.2,10.3a90.42,90.42,0,0,0,25.29,3.46c17.92.05,35.61-4.16,52.78-8.94,6.19-1.72,15.29-2.87,19.38-8.53s.8-12.87-2.94-17.83c-8.4-11.14-22.38-18.92-36.52-18.9-5.24,0-11.13,2.08-11.95,7.94a7.3,7.3,0,0,0,1.25,5.43c2.1,2.79,4.2,1.94,7.21,1.18,15.4-3.94,31.72-9,42-22,9.22-11.67,10.58-26.26,2.58-39-7.57-12-20.35-23.24-34.17-27.21-15.3-4.4-30.51,1.29-44.38,7.57s-30.29,16.23-46.1,12.07c-9.27-2.44-13.5-10.06-13.95-19.23-.37-7.78-.16-18.82,5.62-24.74,6.79-6.94,16.38-2.53,15.29,7-1,8.69-9.86,12.89-17.17,15.43C158.06,103,115,113.87,85.36,89.85,79.83,85.36,74.8,79.6,67.58,77.9c-5.32-1.26-12-.22-15.07,4.79-2.33,3.77-2.21,9.48,1,12.77,4.34,4.51,9.08,1.85,10.89-3.23,4.14-11.52,5.59-31.57-7-38.7-11.33-6.41-24.69,3.15-27,14.68-1.4,7.08.39,14.19,3.56,20.52,1.44,2.88,5.75.35,4.32-2.52Z" transform="translate(-2.32 -8.84)"/><path class="cls-3" d="M35.86,126.55c-1.45,9.14,3.74,18.61,12.76,21.58,8.27,2.73,21.17-2.84,16.83-13.23a2.56,2.56,0,0,0-3.08-1.75,13.58,13.58,0,0,0-8.66,16.7c2,7.66,9.19,13,16.66,14.77,7.81,1.85,42.7-1.07,36-15.36a2.5,2.5,0,0,0-2.82-1.15,9.74,9.74,0,0,0-2.07,16.8c8,6.18,17.7.38,23.87-5.41l-4.18-1.1c4,11.55,17.19,12.39,27.26,9.3,3.39-1,6.66-2.68,10.1-3.53,4.74-1.17,8.07,1,12.46,2.55a102.17,102.17,0,0,0,22.06,4.84c3.19.36,3.17-4.64,0-5a95.75,95.75,0,0,1-19.86-4.37c-4.92-1.66-9.42-4.48-14.72-3.23-5.63,1.33-10.75,4.27-16.51,5.2-6.06,1-13.73-.58-16-7.09a2.54,2.54,0,0,0-4.18-1.11c-3.35,3.15-7.31,6.55-12.18,6.53a7.85,7.85,0,0,1-5.81-2.14c-1.88-2.09-2-6.16,1.06-7.42l-2.83-1.14c1.55,3.3-11,6.61-13,7.14a39,39,0,0,1-14.89,1.29,19.58,19.58,0,0,1-12.93-6.72c-3.9-4.81-4.5-13.15,2.52-15.52l-3.07-1.75c3.47,8.32-8.87,8.7-13.55,5.62a14.37,14.37,0,0,1-6.4-14c.5-3.15-4.31-4.51-4.82-1.33Z" transform="translate(-2.32 -8.84)"/></svg>