<svg id="Layer_1" data-name="Layer 1" xmlns="http://www.w3.org/2000/svg" viewBox="0 0 379.48 413.3"><defs><style>.cls-1{fill:#7ad2f7;}.cls-2{fill:#1f4386;}.cls-3{fill:#d5eaf9;}.cls-4{fill:#231f20;}.cls-5{fill:#fff;}.cls-6{fill:#4164af;}.cls-7{fill:#7bc477;}.cls-8{fill:#015635;}</style></defs><title>eight</title><path class="cls-1" d="M152.89,189.52a75,75,0,0,1-64.45-90c3.13-14.77,10.63-28.24,19-40.77,7.63-11.35,16.35-22.36,28-29.59,14.35-8.94,31.74-11.27,48.57-12.88a838.52,838.52,0,0,1,90.21-3.78c10.11.12,20.58.51,29.68,4.93,14.62,7.09,22.65,23,28.17,38.24,9.14,25.33,14.2,53.24,7,79.18s-29.19,49-56,51.1c28.84,6,54.9,23.34,72.79,46.75s27.71,52.57,29.23,82c.64,12.41-.19,25.08-4.39,36.77-3.86,10.72-10.39,20.24-16.85,29.62s-13.19,19-23,24.77c-8.86,5.24-19.36,6.8-29.56,8.17-57.74,7.75-118.16,12.64-172.82-7.52a95.94,95.94,0,0,1-20.53-10C100.5,384.89,89.75,365,85.75,344.41S83.89,302.52,88,282c2.32-11.62,5.37-23.36,11.87-33.27,4.62-7.05,10.81-12.91,16.94-18.69l38.45-36.28" transform="translate(-30.85 -9.98)"/><path class="cls-2" d="M152.89,187c-37.46-4.89-65.4-38.34-63.43-76.11,1-19.82,11-37.61,22-53.57s24.61-28.6,43.87-33.88,40.12-5.9,60-7.06c21-1.22,42.1-1.85,63.12-1.28,9.71.26,19.64,1.31,28,6.65,7.09,4.52,12.27,11.46,16.24,18.75,8.94,16.42,14.4,36,16.49,54.55,2.31,20.47-.35,41.75-11.67,59.33-9.95,15.45-25.86,27.4-44.52,29.09-2.62.24-3.62,4.28-.67,4.91,45.09,9.68,79.81,45.16,93.41,88.58,6.9,22,10.34,48,3.59,70.48-3.58,11.91-10.73,22.26-17.71,32.39-6.46,9.37-13.28,19.2-23.56,24.71-11.07,5.94-24.52,6.74-36.75,8.29s-24.29,2.88-36.47,3.85c-24.52,2-49.26,2.42-73.73-.43a234.6,234.6,0,0,1-36.49-7.12c-11.69-3.29-23.65-7.25-34-13.78-18.44-11.65-29.12-32.48-32.82-53.5-2.68-15.19-2-30.88.28-46.08,2-13.19,4.32-27.14,10.19-39.24s16.28-21,26-30.16L157,195.49c2.35-2.21-1.2-5.75-3.54-3.54l-32,30.23c-9,8.45-18.73,16.68-25.08,27.4S87.13,272.84,84.86,285c-2.49,13.33-4.12,26.92-3.67,40.5.74,22.78,7.63,45.92,23.4,62.9,16.69,18,42.95,25.13,66.25,29.7,25.79,5.07,52.24,5.9,78.43,4.58,13.45-.67,26.85-1.91,40.22-3.44,12.52-1.44,25.45-2.47,37.72-5.45A53,53,0,0,0,355.84,396a195.89,195.89,0,0,0,21.3-31c12.42-22.3,12.39-48.31,7.6-72.82-10.16-52-48.23-97.21-101.08-108.55l-.66,4.91c37.45-3.4,60.2-39.75,61.86-74.69,1-21.41-4.17-43.11-11.95-62.93-6.28-16-15.85-31.94-33-37.7C289.83,9.78,278.82,10,268.33,10Q250.17,9.9,232,10.6c-22.86.87-46.36,1.73-68.89,6C142.68,20.41,126.36,30,113.44,46.34,101,62,89.45,80.58,85.71,100.51a78.5,78.5,0,0,0,14.84,62A79.13,79.13,0,0,0,152.89,192c3.19.41,3.16-4.59,0-5Z" transform="translate(-30.85 -9.98)"/><path class="cls-3" d="M234.54,159.33q-24,.94-48,.73c-5-.05-10.16-.14-15-1.53C155.75,154,146.8,137.08,143.66,121c-4.76-24.49,1.25-52.72,21.12-67.82,16.43-12.49,38.51-13.75,59.14-14.31,12.85-.35,25.73-.62,38.54.5,9.92.87,20.31,2.82,27.86,9.32,7.84,6.74,11.31,17.37,12.26,27.67,1,10.92-.54,22.3-6,31.8-4.77,8.3-12.2,14.7-19.81,20.5a260.46,260.46,0,0,1-49.95,29.9" transform="translate(-30.85 -9.98)"/><path class="cls-4" d="M234.54,156.83c-16.61.64-33.26,1-49.88.71-7.73-.15-15-1.18-21.35-5.89-5.19-3.85-9-9.24-11.85-15-11.09-22.42-9.47-54.39,6.89-73.94,19.08-22.8,53-21.49,80-21.7,14.65-.12,32.3-1.05,45.56,6.24,13.73,7.54,17.3,25,16.28,39.45-1.35,19.28-13.59,31.59-28.37,42.46a264.64,264.64,0,0,1-46.3,27.17c-2.92,1.34-.39,5.65,2.52,4.32a264.43,264.43,0,0,0,47-27.71c13-9.66,25.08-20.54,28.8-37,3.24-14.33,1.77-32-7.23-44.09-9.31-12.52-25.47-14.62-40-15.46a333.37,333.37,0,0,0-53.62,1.1c-14.68,1.56-29.51,5.26-41.19,14.75C140.12,69.92,135.24,102.8,143,128.54c4.19,14,13.14,28.15,27.92,32.4,9.51,2.74,20.29,1.7,30.07,1.64q16.8-.09,33.59-.75c3.21-.12,3.22-5.13,0-5Z" transform="translate(-30.85 -9.98)"/><path class="cls-3" d="M295,247.11c-3.85-4.59-7.83-9.28-13-12.23-5.6-3.16-12.16-4-18.54-4.83q-13.23-1.61-26.48-2.9c-11-1.07-22.38-2-32.88,1.53-8.82,2.91-16.41,8.72-25.05,12.15-2.52,1-5.22,1.87-7.14,3.79-2.25,2.25-3,5.54-3.68,8.65-5.15,24-10.25,49.25-2.85,72.62,2.49,7.87,6.34,15.24,10.5,22.36C179.23,354.11,183,360,188.48,364c6.45,4.74,14.57,6.46,22.42,8.05,9.14,1.86,18.46,3.72,27.73,2.67,14.73-1.68,27.53-10.47,39.66-19,4.65-3.27,9.34-6.57,13.24-10.72a55.41,55.41,0,0,0,9.4-14.33c7.78-16.46,9.84-35,10.22-53.21.13-6.27.05-12.69-2.06-18.59S302.47,247.59,296.4,246" transform="translate(-30.85 -9.98)"/><path class="cls-4" d="M296.73,245.34c-4.92-5.84-10-11.49-17.29-14.38-8-3.18-17.07-3.56-25.51-4.51-17.13-1.94-36.44-5.81-53,.71-8.11,3.19-15.31,8.25-23.36,11.56-7,2.89-10.13,6.42-11.81,13.89-3.93,17.46-7.57,35.65-6.47,53.64,1.06,17.25,7.6,32.83,16.82,47.29,3.76,5.9,8.28,11.32,14.48,14.74,6.89,3.79,14.78,5.22,22.41,6.74,8.71,1.72,17.61,3.22,26.5,2.08A62.54,62.54,0,0,0,260.7,370a189.16,189.16,0,0,0,21.64-14c6.45-4.64,12.26-9.71,16.6-16.44,10.08-15.64,13.35-34.93,14.38-53.19.86-15.18,1.74-37.05-16.26-42.69-3.08-1-4.39,3.87-1.33,4.82,15.78,4.94,13.32,26.82,12.48,39.64-1,15.23-3.73,30.83-11,44.44-6.94,13-19.43,21.12-31.63,28.8-6.06,3.82-12.44,7.27-19.34,9.3-8.41,2.47-16.93,2.19-25.5.79-14.64-2.38-29.53-4.87-38.61-17.75-8.14-11.53-14.68-25.07-17-39.05-2.61-15.93-.31-32.28,2.75-48,1.24-6.36,1.58-18.2,7.78-21.71,2.41-1.37,5.2-2.14,7.72-3.31,3.69-1.72,7.21-3.79,10.79-5.72,8.34-4.49,16.53-7,26.05-7.17,8.71-.14,17.45,1,26.09,1.91,8.86.94,18.12,1.39,26.77,3.57,8.83,2.22,14.4,8,20.06,14.69,2.08,2.46,5.6-1.09,3.54-3.54Z" transform="translate(-30.85 -9.98)"/><path class="cls-5" d="M213.69,70.45c-7.06-.23-14.17-.46-21.15.63s-13.91,3.58-19.24,8.22c-1.65,1.44-3.21,3.23-3.48,5.41a7.16,7.16,0,0,0,2.93,6.16,18.65,18.65,0,0,0,6.44,2.92,134.62,134.62,0,0,0,18.86,4c9.91,1.44,20.61,1.93,29.32-3A16.36,16.36,0,0,0,234,88.34a9.42,9.42,0,0,0,0-9c-1.4-2.33-3.92-3.72-6.36-4.92a113.76,113.76,0,0,0-20-7.56" transform="translate(-30.85 -9.98)"/><path class="cls-6" d="M213.69,68c-14-.45-35-1-44.41,12-10.88,15,20.17,19.12,28.1,20.28,12.45,1.8,32.68,2.7,39.05-11.21,7.15-15.6-17.84-21.67-28.05-24.56-3.1-.88-4.43,4-1.33,4.82,7.32,2.07,34.07,8.86,22.91,20.44-8.21,8.51-22.6,7-33.16,5.4a116.62,116.62,0,0,1-16.94-3.73c-3.25-1-6.75-2.07-6.94-5.87-.17-3.4,2.86-5.24,5.57-6.93,10.43-6.51,23.39-6,35.2-5.63,3.22.11,3.21-4.89,0-5Z" transform="translate(-30.85 -9.98)"/><path class="cls-7" d="M197.88,89.18a6.61,6.61,0,0,1-1.54-6.32,12.66,12.66,0,0,1,3.6-5.71,2.82,2.82,0,0,1,1.7-1,2.91,2.91,0,0,1,1.68.63c2.58,1.65,5.35,3.53,6.28,6.45s-.46,6.5-2.93,8.53a7.22,7.22,0,0,1-6.92,1.53c-2.32-.88-3.82-3.82-2.65-6" transform="translate(-30.85 -9.98)"/><path class="cls-8" d="M199.65,87.42c-1.64-1.9-1-7,1.66-8.09,1.5-.61,4.34,1.9,5.26,3.39a5.33,5.33,0,0,1-1,6.65c-1.74,1.8-7.76,2.85-6.1-1.39,1.16-3-3.67-4.3-4.83-1.33-2.16,5.56,3.47,10.42,8.83,9.34,5.83-1.17,10.25-7.53,8.5-13.4-1.26-4.23-8.19-11-12.81-8C193.75,78,191.8,86,196.12,91c2.11,2.43,5.64-1.11,3.53-3.53Z" transform="translate(-30.85 -9.98)"/><path class="cls-5" d="M269.16,68.67c-8.71-1.86-17.55,2.09-25.24,6.59-2,1.17-4.14,2.62-4.63,4.88a5.73,5.73,0,0,0,1.88,5.19,14.41,14.41,0,0,0,5,2.8,65.49,65.49,0,0,0,19,4.1c4.33.28,9.22-.12,12.06-3.4,2.57-3,2.61-7.28,2.32-11.18a5.82,5.82,0,0,0-.54-2.41,5.62,5.62,0,0,0-2.81-2.12,40.22,40.22,0,0,0-18.56-3.28" transform="translate(-30.85 -9.98)"/><path class="cls-6" d="M269.82,66.26a32.67,32.67,0,0,0-18.54,2.47c-4.41,1.84-11.23,4.38-13.67,8.89-6.24,11.5,15.31,15.56,21.93,16.52,10.55,1.52,22.08.2,22.6-12.77.19-4.85-.39-8.35-5-10.53a41.93,41.93,0,0,0-19.52-3.5c-3.21.13-3.22,5.14,0,5,5.38-.22,18.72-.12,19.5,6.79.48,4.26-.88,8.81-5.35,10.15-3.21,1-6.88.53-10.15.13a62.46,62.46,0,0,1-11.45-2.53c-4.61-1.46-11.4-3.7-5-9.46,2.41-2.16,6.95-3.78,9.94-4.85a25.93,25.93,0,0,1,13.36-1.49c3.15.54,4.5-4.28,1.33-4.82Z" transform="translate(-30.85 -9.98)"/><path class="cls-7" d="M259.81,76.44c-4.28,1.22-5.94,7.55-2.82,10.71s9.47,1.59,10.75-2.66c1.05-3.48-1-7.17-3.56-9.73-1.61-1.6-3.76-3-6-2.64" transform="translate(-30.85 -9.98)"/><path class="cls-8" d="M259.14,74c-9.84,3.49-7,19.15,3.94,17.12,13.15-2.44,6.28-22.27-4.9-21.53-3.19.21-3.22,5.21,0,5,5-.33,11.07,10,4.21,11.57-4.86,1.14-6.19-5.82-1.92-7.34,3-1.07,1.72-5.9-1.33-4.82Z" transform="translate(-30.85 -9.98)"/><path class="cls-7" d="M258.87,108.09a123.91,123.91,0,0,0-47.55.55c-2.74.57-5.62,1.31-7.62,3.27s-2.73,5.51-.78,7.53a7.53,7.53,0,0,0,3.37,1.75c8.75,2.65,18,2.84,27.18,3,10.69.2,22,.24,31.21-5.21,3.16-1.86,6.25-5.28,5.11-8.76-1.22-3.73-6.11-4.42-10-4.45l-18-.14" transform="translate(-30.85 -9.98)"/><path class="cls-8" d="M259.53,105.68a130.87,130.87,0,0,0-29.24-2c-7.95.4-18.44.6-25.6,4.45-4.5,2.42-7.62,8.74-3.54,13,2.34,2.48,6.66,3.08,9.79,3.7a92.31,92.31,0,0,0,13.36,1.52c8.86.45,18,.84,26.84-.43,6.8-1,15.89-3.28,19.86-9.53,3.14-4.94.81-10.42-4.55-12.27-3.27-1.13-6.89-.93-10.29-1l-14.41-.11c-3.22,0-3.22,5,0,5,6,.05,12,0,18,.14,2.15.06,4.67,0,6.38,1.47,4.05,3.46-2.83,7.28-5.41,8.46-10.53,4.81-23.31,3.76-34.59,3.31-5.74-.23-13-.09-18.3-2.48-2.34-1-4.85-2.62-2.38-5.36,1.09-1.19,3-1.72,4.46-2.14a69.57,69.57,0,0,1,7.71-1.52,123.58,123.58,0,0,1,40.57.49c3.15.56,4.5-4.26,1.33-4.82Z" transform="translate(-30.85 -9.98)"/><path class="cls-6" d="M31,155.82c2.58,9.65,7.53,18.61,10.74,28.07a205.73,205.73,0,0,1,7.61,29.83c.57,3.16,5.39,1.82,4.82-1.33a205.73,205.73,0,0,0-7.61-29.83c-3.21-9.45-8.17-18.43-10.74-28.07-.83-3.1-5.65-1.79-4.82,1.33Z" transform="translate(-30.85 -9.98)"/><path class="cls-6" d="M59.46,241.58a14.26,14.26,0,0,1-1-7.9l-3.67,1.5c.84.36.42,0,.36,0-3.21.09-3.23,5.09,0,5,5.07-.15,7.17-7.17,2.16-9.34-1.33-.58-3.36-.26-3.67,1.49a19,19,0,0,0,1,10.56,2.59,2.59,0,0,0,3.08,1.75,2.52,2.52,0,0,0,1.74-3.08Z" transform="translate(-30.85 -9.98)"/><path class="cls-6" d="M405.34,102a358.58,358.58,0,0,1-5.84,50.51c-.59,3.14,4.23,4.49,4.82,1.33a368.63,368.63,0,0,0,6-51.84c.14-3.21-4.86-3.21-5,0Z" transform="translate(-30.85 -9.98)"/><path class="cls-6" d="M399.12,196.76c-.38,0-.43-.09-.1.05-.49-.21.43,0-.09-.06.23.19.27.22.14.1l-.2-.21c.36.39,0,0-.05-.15.2.35.06.12,0-.14-.17-.51.13.46,0-.1.06.26-.12.38,0,0s-.51.65-.08.22l-3,.39a2.54,2.54,0,0,1,.52.52,2.12,2.12,0,0,1,.41,1,2.5,2.5,0,1,0,4.82-1.33,7.53,7.53,0,0,0-3.23-4.53,2.53,2.53,0,0,0-3,.39c-3,3.07-.59,9.2,3.91,8.81a2.57,2.57,0,0,0,2.5-2.5,2.51,2.51,0,0,0-2.5-2.5Z" transform="translate(-30.85 -9.98)"/></svg>