<svg id="Layer_1" data-name="Layer 1" xmlns="http://www.w3.org/2000/svg" viewBox="0 0 400.43 400.11"><defs><style>.cls-1{fill:#6894cd;}.cls-2{fill:#282972;}</style></defs><title>five</title><path class="cls-1" d="M359.89,18.73c-47.38,8.34-93.66,21.9-139.82,35.43L92.68,91.51c-15.08,4.42-30.18,8.85-45,14.13-2.13.76-4.45,1.71-5.46,3.74s-.41,4.23.15,6.3l16.35,60.73a7.35,7.35,0,0,0,1.81,3.69c2.19,2,5.61.67,8.27-.59,23.12-10.95,49.42-12.65,75-13.32,29.15-.76,58.82-.34,86.66,8.34s53.94,26.72,66.23,53.16c7.42,16,9.41,33.91,9.88,51.51.63,23.76-2.61,50.3-20.73,65.69-11,9.38-25.73,12.92-39.84,16.13-11.89,2.71-24,5.41-36.16,4.47-10.35-.81-20.32-4.23-29.81-8.43-16.9-7.48-33-17.82-44-32.65s-16.34-34.67-10.78-52.3,23.44-31.53,41.81-29.5a77,77,0,0,0-14.47-21.76c-3.52-3.7-7.7-7.2-12.75-8-4.58-.71-9.17.93-13.46,2.69a201,201,0,0,0-49.49,29.16c-5.65,4.54-11.18,9.54-14.56,16-3.78,7.17-4.57,15.49-4.93,23.59-.47,10.52-.32,21.19,2.21,31.42,6.75,27.18,29.17,47.42,51.84,63.88,10.39,7.55,21.22,14.76,33.32,19.05,11,3.92,22.78,5.29,34.42,6.53,22.09,2.35,44.38,4.3,66.48,2.1a178.17,178.17,0,0,0,56.64-15.39c26.56-12.21,50.89-32.27,61.35-59.57,4.84-12.63,6.53-26.23,7.71-39.71a589.23,589.23,0,0,0,2-68.27c-.42-15.08-1.49-30.48-7.34-44.38-10.26-24.36-34.24-40.93-59.7-48s-52.45-5.9-78.74-3.22a725.39,725.39,0,0,0-73.9,11.43c-5-4.56-3-13.43,2.23-17.74s12.31-5.31,19-6.18Q269.42,104,362.38,82.46c3.08-.71,6.48-1.66,8.09-4.37s.9-5.84.22-8.75Q364.68,43.6,358,18" transform="translate(-17.93 -15.59)"/><path class="cls-2" d="M359.23,16.32C321.76,23,285,32.77,248.44,43.29c-37,10.64-73.87,21.6-110.79,32.43-18.67,5.47-37.35,10.9-56,16.43-9.11,2.7-18.2,5.47-27.2,8.51-5.21,1.75-14.11,3.21-15.13,9.89-.58,3.77,1.22,7.92,2.18,11.49l3.84,14.23,7.41,27.52c1.19,4.41,2.22,8.91,3.57,13.28.78,2.52,1.79,5,4.44,6s5.21.24,7.63-.7c4.24-1.64,8.3-3.67,12.61-5.14,17-5.78,35.09-7.51,53-8.25,18.16-.76,36.45-1.06,54.59.37,32.69,2.58,66.24,12.23,89.75,36.29s27.93,59.1,25.38,91.27c-1.16,14.53-4.79,29.83-14.52,41.13-10.86,12.63-27.46,16.79-43,20.35-9.42,2.16-18.92,4.37-28.61,4.7a73.52,73.52,0,0,1-27.45-4.72c-15.88-5.67-31.58-14.21-43.72-26-11.71-11.4-20.11-26.64-20.8-43.22-.66-15.9,6.67-31.18,20.6-39.33A34.69,34.69,0,0,1,167,245.11c2.07.18,2.86-2.22,2.16-3.76-5.08-11.19-14.41-27.15-27.23-30.58-6.93-1.85-13.84,1.29-20.09,4a199.84,199.84,0,0,0-21.82,11C87.33,233.18,73,242.13,63.81,253.87c-9.74,12.46-9.73,30.19-9,45.29,1.46,30.59,19.42,53.9,42.38,72.63,11.8,9.63,24.43,19.09,38.24,25.64,15,7.12,31.32,8.94,47.64,10.63,35.38,3.66,70.52,4.34,104.52-7.57,26.58-9.32,52.09-25,68.38-48.44,18.78-27.07,19-62.82,19.92-94.55.5-17.62.8-35.6-1.28-53.12-1.77-14.87-6.23-29-15.34-41-17.37-22.93-45.34-34.49-73.2-37.92-34.95-4.29-71.47,1.38-105.94,7.19q-13.59,2.29-27.08,5.1l2.43.65c-3.17-3.36-2.42-8.31.05-11.87,2.75-4,7.81-5.66,12.31-6.64,9.54-2.08,19.52-2.77,29.19-4.13q31.13-4.38,62.09-9.77t61.73-11.8q15.39-3.2,30.72-6.65c6.35-1.43,17.27-1.81,21.07-8.15,1.95-3.26,1.23-7.19.47-10.68-1.18-5.41-2.55-10.79-3.85-16.18q-4.26-17.6-8.81-35.12c-.81-3.11-5.64-1.79-4.83,1.33q4.18,16.1,8.13,32.26,1.85,7.62,3.65,15.23c.56,2.41,1.57,5.15,1.52,7.65-.08,4.38-3.65,5.34-7.19,6.21-21,5.17-42.21,9.41-63.38,13.56Q265.57,100,232.6,105.34c-21.19,3.4-42.65,5.54-63.77,9.24-7.07,1.24-14.57,3.9-18.31,10.48-2.48,4.38-3.86,13.56,1.41,16.83,2.76,1.71,7.17-.33,10.15-.92q8.7-1.71,17.43-3.21,16.65-2.85,33.41-4.92C252.41,128,296.44,124,332,145.66c15.19,9.26,27.86,22.93,33.56,40,6.76,20.21,5.83,43,5.51,64-.32,21.57-.92,43.9-5.1,65.12a92.51,92.51,0,0,1-25.45,48c-27.5,27.7-68.21,41.25-106.57,42.73-21.77.83-43.89-1.23-65.46-4.15-10.82-1.47-21.43-3.88-31.31-8.67-8.68-4.21-16.69-9.66-24.47-15.32-14.75-10.72-29.24-22.77-39.54-38C61.81,322.67,59,304.16,59.87,284.27c.51-11.06,2.28-21.5,10.05-29.9,6.81-7.35,15.4-13.3,23.74-18.78a200.07,200.07,0,0,1,25.15-14c4.75-2.22,9.69-4.71,14.83-5.87,6.18-1.4,11.13,1.07,15.52,5.28a73.76,73.76,0,0,1,15.71,22.89l2.16-3.76c-13.77-1.22-27.07,5.38-35.74,15.93-9.24,11.26-12.29,25.8-10,40,5.17,32.85,34.25,54,63.19,65.52a85.79,85.79,0,0,0,26.36,6.44c9.52.59,19-1,28.32-2.94,15.78-3.34,33-6.59,46.11-16.55,24.23-18.39,25.34-53.17,23.28-80.83-1.24-16.65-4.64-33.38-13.14-48-7.41-12.71-18.09-23.25-30.22-31.47-28.74-19.49-64-24.41-98-24.84-18.46-.23-37.17.06-55.53,2.2a166.17,166.17,0,0,0-26,4.94,115.07,115.07,0,0,0-11.74,4c-1.86.74-3.67,1.57-5.5,2.37a11.68,11.68,0,0,1-3,1.27c-4.05.27-4.28-2.94-4.93-5.36l-7.92-29.41L48.88,130.2C47.57,125.33,45.31,120,44.79,115c-.18-1.81.06-4.72,1.61-6.16.69-.64,3.06-1.19,3.81-1.46,2.15-.78,4.33-1.51,6.5-2.23q7.45-2.51,15-4.8c9.72-3,19.5-5.82,29.26-8.68l116-34C255,46.53,293.09,35.26,331.87,26.81q14.29-3.12,28.69-5.67c3.16-.56,1.82-5.38-1.33-4.82Z" transform="translate(-17.93 -15.59)"/><path class="cls-2" d="M38.44,85.37c8-13.46,8-29.2,12.15-43.91.22-.78,1.33-5.8,2-5.92-.22,0,1.88,3.63,2.25,4.27l6.86,11.88L76,76.3l2.82-3.67C58.33,69,41,56.59,21.05,51.28V56.1Q58.19,50.93,94.9,43.22L93,38.65,60.26,61a124.64,124.64,0,0,0-12.37,9c-4.29,3.78-7.68,8.34-13,10.75-2.93,1.32-.39,5.63,2.52,4.31,4.49-2,7.73-5.43,11.19-8.84C52.88,72,57.81,68.69,62.78,65.3L95.5,43a2.51,2.51,0,0,0-1.93-4.57q-36.7,7.7-73.85,12.88c-2.55.36-2.22,4.23,0,4.82C39.65,61.41,57,73.81,77.45,77.45a2.53,2.53,0,0,0,2.82-3.67L63.6,44.93c-2.35-4.07-4.49-9.62-7.7-13.08a4.29,4.29,0,0,0-6.25-.47c-2.5,2.14-3.31,6.58-4.11,9.55-1.22,4.53-2,9.15-2.86,13.77C41,64.45,39.25,74.21,34.12,82.84c-1.65,2.78,2.68,5.3,4.32,2.53Z" transform="translate(-17.93 -15.59)"/><path class="cls-2" d="M376.79,160a243,243,0,0,1,8.13-48l.52-1.83c.11-2.24.61-2.43,1.5-.55,1,1,2,4,2.56,5.21q2.53,5.22,5,10.48,5.14,11,10,22,2.56,5.92,5,11.87,1.11,2.69,2.21,5.37c.37.9.73,1.79,1.09,2.69a2.87,2.87,0,0,0-2.17-2c-5.27-4-10.66-7.5-15.69-11.87-10-8.65-20-15.76-33.21-18.49v4.82l54.8-20.57-2.82-3.67a247.13,247.13,0,0,1-38.08,47.93c-2.3,2.26,1.23,5.79,3.53,3.54A251.57,251.57,0,0,0,418,118c1.07-1.75-.73-4.45-2.82-3.67l-54.8,20.57c-2.1.79-2.64,4.28,0,4.82,15,3.11,25,12.36,36.38,21.82,4.33,3.59,9.31,7.9,14.71,9.7,3.72,1.24,7.19-.58,6.28-4.79-.74-3.46-2.83-7.05-4.2-10.31q-2.18-5.22-4.42-10.39-5-11.55-10.35-22.93-2.46-5.26-5-10.48c-1.29-2.64-2.36-6-4.64-8-3.36-2.91-6.67-1.06-8,2.65-3.12,8.5-4.7,18-6.23,26.87A255.34,255.34,0,0,0,371.79,160c-.22,3.22,4.78,3.2,5,0Z" transform="translate(-17.93 -15.59)"/><path class="cls-2" d="M57.5,412.45a296.28,296.28,0,0,0,.73-64.74l-2.5,2.5c2.25.09,4.88,5.63,6,7.26q2.45,3.69,4.76,7.48,4.62,7.55,8.73,15.41a263.72,263.72,0,0,1,14.61,33.48L93.46,411q-25.08-17.41-51.1-33.41l-.59,4.57L61.26,375c6.21-2.29,13.93-6.7,20.64-6l-1.77-4.27A520.68,520.68,0,0,1,43.06,407c-2.24,2.31,1.29,5.85,3.54,3.54a524.71,524.71,0,0,0,37.07-42.32A2.54,2.54,0,0,0,81.9,364c-6.9-.71-13.88,3.2-20.2,5.54l-21.26,7.87a2.53,2.53,0,0,0-.6,4.57q26,16,51.1,33.41a2.53,2.53,0,0,0,3.67-2.83,271.6,271.6,0,0,0-17.2-38.58q-5.09-9.35-10.92-18.24c-2.62-4-5.33-10.26-10.76-10.48a2.51,2.51,0,0,0-2.5,2.5,296.28,296.28,0,0,1-.73,64.74c-.39,3.18,4.61,3.15,5,0Z" transform="translate(-17.93 -15.59)"/><path class="cls-2" d="M387.63,397.71q4.85-22.09,8.16-44.48l-4.57.6c6.23,14.21,11.25,28.9,16.24,43.59l3.08-3.07c-6-1.13-12-7.41-16.89-10.78A66.9,66.9,0,0,0,377.14,375l.6,4.57q17.34-8.14,35.3-14.76l-2.82-3.67-26,41.12c-1.72,2.73,2.6,5.24,4.32,2.53l26-41.13c1.11-1.75-.75-4.43-2.82-3.67q-18.57,6.86-36.49,15.26c-2.09,1-1.27,4,.59,4.57,6.61,2.21,12.37,6,18,9.94,4.57,3.23,9.73,8.32,15.37,9.39,1.73.33,3.73-1.13,3.07-3.08C407.15,381,402,365.92,395.54,351.3c-.83-1.89-4.27-1.47-4.57.6q-3.32,22.38-8.16,44.48c-.69,3.14,4.13,4.48,4.82,1.33Z" transform="translate(-17.93 -15.59)"/><path class="cls-2" d="M219.91,310q2.84-33.78,3.24-67.68l-4.27,1.77c6.43,5.61,9.48,14.83,13.13,22.33l11.36,23.36s2.28,4.3,2.18,4.41c-.34.38-4.81-1.86-5.45-2.12l-11.71-4.76-25.21-10.25.59,4.57q22.44-12,45.31-23.05l-3.42-3.42a296.62,296.62,0,0,0-27.71,59c-1,3.05,3.79,4.36,4.83,1.33A290.39,290.39,0,0,1,250,257.69c1.39-2.27-1.29-4.45-3.42-3.42q-22.87,11.09-45.31,23c-2.09,1.12-1.24,3.82.6,4.57l31.52,12.82c3.13,1.27,16.85,9,17.63.82.36-3.75-3.48-8.6-5.06-11.85l-7.86-16.18c-4.36-9-8-20.22-15.66-26.93a2.53,2.53,0,0,0-4.27,1.76q-.41,33.9-3.24,67.68c-.27,3.2,4.73,3.19,5,0Z" transform="translate(-17.93 -15.59)"/></svg>