<svg xmlns="http://www.w3.org/2000/svg" viewBox="0 0 417.38 417.62"><defs><style>.cls-1{fill:#bad981;}.cls-2{fill:#3f803d;}.cls-3{fill:#e7ec9f;}.cls-4{fill:#f36d4d;}.cls-5{fill:#bd3a26;}.cls-6{fill:#e0f3fd;}.cls-7{fill:#4e8f97;}</style></defs><title>flag</title><g id="Layer_2" data-name="Layer 2"><path class="cls-1" d="M18.77,8.5Q212.87,6.6,407,8.37c2.57,0,5.34.12,7.35,1.71s2.77,4.51,3.28,7.13c7.15,37.43,4.48,75.93,2.58,114a2745.48,2745.48,0,0,0,.34,281.54c-19.8,3.06-39.69-3.49-59.66-5.16-21.83-1.82-43.67,2.23-65.38,5.22-88.19,12.13-177.74,6.78-266.6,1.4-2.63-.16-5.5-.41-7.43-2.21a11.08,11.08,0,0,1-2.58-4.66c-14-40.39-8-84.54-5.48-127.23C18.76,189.86,7.68,99.14,14.87,9" transform="translate(-7.42 -5.02)"/><path class="cls-2" d="M18.77,11q156.29-1.53,312.56-.68l37.83.24c13,.09,26.39-.66,39.38.34,7.19.56,7.1,9,8,14.6,1.06,6.78,1.8,13.6,2.31,20.44,1,12.87,1.11,25.79.85,38.7-.51,25.44-2.32,50.85-3.32,76.28q-1.51,38.64-1.94,77.33-1,87.27,3.61,174.48l1.84-2.41c-13.61,1.9-27.16-.55-40.57-2.76-12.22-2-24.33-3.31-36.73-2.79-26.21,1.1-52.15,6.67-78.26,9.1-52.14,4.86-104.62,4.37-156.89,2.12-26.32-1.14-53-1.78-79.19-4.34-4.22-.42-5.82-1.88-7.23-5.87-.92-2.57-1.69-5.2-2.42-7.84a160.1,160.1,0,0,1-4.06-19.51,239.11,239.11,0,0,1-2.07-37.54c.35-24.89,3.1-49.67,4.14-74.53,1.1-26.18,1-52.4.44-78.59C15.84,128.2,12.71,68.54,17.37,9c.25-3.21-4.76-3.19-5,0-4.28,54.59-2,109.34-.67,164,.66,27.17,1.08,54.37.3,81.55-.74,26.36-3.54,52.6-4.38,78.95-.78,24.69.45,50,8.56,73.58,1.23,3.59,2.59,6.72,6.22,8.37,4.79,2.17,11.18,1.5,16.3,1.81q20.61,1.23,41.22,2.36c54.23,2.88,108.66,4.53,162.9.93q23-1.51,45.86-4.39c15.07-1.92,30.07-4.6,45.23-5.86a180.47,180.47,0,0,1,45,2.2c14.07,2.33,28,4.6,42.29,2.61a2.48,2.48,0,0,0,1.83-2.41q-4.18-80.22-3.73-160.6c.31-52.68,3.33-105.16,5.11-157.79.87-25.63.59-51.56-4.22-76.84-.67-3.53-1.52-7.33-4.6-9.58C411.18,4.71,404.08,5.84,399,5.8q-19.9-.18-39.81-.31Q279.58,4.95,199.94,5q-90.58.09-181.17,1c-3.21,0-3.22,5,0,5Z" transform="translate(-7.42 -5.02)"/><path class="cls-3" d="M43.34,82.38c-3.62-7.24-5.31-17,.06-23.86,4.08-5.24,12.31-8,17.91-3.52,6.15,4.88,6.4,14.48,5.67,21.6a45.57,45.57,0,0,1-1.11,6.26c-.27,1.13-.59,2.28-1,3.38-.5,1.52-.28,2.23-1.84,2.09s-2-2.24-2-3.65a5.66,5.66,0,0,1,3.5-5.3c8-3.82,15.71,4.51,21.18,9.15A65.89,65.89,0,0,0,102.77,99c13.24,5.59,27.94,7.06,42.17,5.86,16-1.35,31.59-5.77,46.9-10.54,10.39-3.24,23.51-7.82,25.75-20,1.76-9.6-4.92-19.79-15.56-17.13-12.73,3.18-14.83,18-15.11,29.06-.3,11.85,3.67,23.27,15.72,27.4s24.79-.06,35.85-4.75c13.71-5.82,27.24-14.12,42.35-15.56,15.53-1.5,28.64,7,38.86,17.88,5.32,5.69,10.17,12.49,11.16,20.41,1,7.74-2.1,15.39-6.9,21.36a47.29,47.29,0,0,1-17.2,12.88,90.17,90.17,0,0,1-11.35,4.27c-1.91.59-3.84,1.14-5.77,1.67-1.39.38-4.41,1.82-5.8,1.52-2.95-.64.08-4,2.17-4.58a15.26,15.26,0,0,1,4.86-.31A40.21,40.21,0,0,1,302,170.68,43.21,43.21,0,0,1,320.17,183c2.54,2.92,5.48,6.64,5.52,10.66.06,5.41-5.28,6.7-9.55,7.94-7.94,2.32-15.92,4.53-24,6.4-16.22,3.75-33.18,6.17-49.78,3.5-15.94-2.57-29.22-12.63-45.07-15.1s-32.36-.86-48.22-.66c-4.15.05-8.29.08-12.44.15-2.9,0-6,0-8.57,1.58-5.31,3.24-6,11.41-7.45,16.85l-6.93,25.61a2.53,2.53,0,0,0,1.75,3.07l18.86,4.62a2.53,2.53,0,0,0,3.07-3.08c-1.53-7.38-10.25-10.62-16.84-7.76-9.14,4-10.93,15-11.34,23.79-.56,11.85-2.72,21.9-11.84,30.22a36.94,36.94,0,0,1-13.84,8c-2.61.8-15.52,3.85-11.82-2.89,3.59-6.53,13.83,3.05,16.5,6.17a55.49,55.49,0,0,1,8,13.3c4.21,9.29,7,19.2,12,28.14a66.54,66.54,0,0,0,21.16,22.81c6.17,4.13,17.06,10.4,20.75.05,1.93-5.43,1.24-12,1.71-17.63q1-11.73,3.08-23.32a254.27,254.27,0,0,1,11.89-43l-4.17,1.1c10.61,13.32,15.78,29.64,19.3,46.08,1.79,8.4,3.18,16.87,4.7,25.32,1.24,7,1.66,15.67,5,22,7.42,14.18,23.92-3,28.43-10.53,7.55-12.65,9.39-27.85,10.94-42.22l-4.65,1.26A288.52,288.52,0,0,0,253,368.86c6.56,8.81,17.55,23.59,29.94,15,4.79-3.33,7.18-9.32,12.22-12.28,7.22-4.25,17.83.25,25.47,1.3,17.44,2.38,35.07,1.42,52.54-.1,5.83-.5,15.29.37,19.17-5.1,4.58-6.43,3.07-17.39,1.2-24.48a2.58,2.58,0,0,0-2.41-1.84c-8.33-1.08-15.31,6-15.62,14.14-.28,7.29,5.06,18.79,13.49,19.14s10.8-11.37,11.78-17.69a70.9,70.9,0,0,0-1.12-25.35c-3.79-18.2-12.2-35-18-52.62-2.84-8.66-5.17-17.62-5.5-26.78-.38-10.3,2.32-19.33,6.73-28.56s8.51-18.16,6.67-28.51c-1-5.35-3.11-10.38-4.13-15.7-1.24-6.46.38-12.51,2.45-18.6,3.58-10.56,6.16-19.62,1.65-30.34-2-4.8-4.4-9.37-5.86-14.41a92.06,92.06,0,0,1-3.13-20.21c-.65-11.2.26-22.62-1.22-33.74-1.05-7.94-4.84-15.15-13.62-15.73-4.67-.31-10.44,1.75-14.21-1.89-3.24-3.13-5.13-5.93-9.95-6.4-9.05-.88-18.2,7.18-27,2.77-4.61-2.31-7.9-6.63-12.26-9.35a26.72,26.72,0,0,0-14.72-3.73c-6.05.1-12,1.59-17.92,2.74a93.67,93.67,0,0,1-20.4,1.63c-24.85-.64-50.6-8.56-74.63,1.22-2.95,1.2-1.66,6,1.32,4.83,19.4-7.9,40.27-3.83,60.41-1.9,9.6.91,19.29,1.39,28.87,0,9.73-1.37,20.51-5.7,30.27-2.52,8,2.63,12.51,11.2,21,13,8,1.71,15-3.29,22.72-3.76,5.14-.32,6.38,3.18,9.83,6,2.95,2.38,6.56,2.7,10.21,2.55,4.8-.2,9.87-1,12.88,3.61,2.54,3.91,2.53,9.3,2.73,13.78.86,20.05-.57,40.05,8,58.77,2.27,5,4.63,9.79,4.43,15.38-.18,5.39-2.22,10.53-3.94,15.58-2.94,8.63-4.27,16.38-1.92,25.34,1.38,5.27,3.51,10.43,3.71,15.94s-1.82,10.87-4,15.85c-3.54,7.92-7.65,15.39-9.11,24.06-2.58,15.29,1.4,30.63,6.46,45,6,16.94,14,33.47,17,51.29,1.52,9,1.55,18.4-1.28,27.12-1.22,3.77-4.22,8.52-8.7,4.27a17.34,17.34,0,0,1-4.6-8.24c-1.61-6.75,2.76-14,10.24-13l-2.41-1.83c1.45,5.49,2.07,11.51.69,17.11-1.47,6-7.37,5.35-12.46,5.81-9.44.85-18.9,1.61-28.38,1.83a166.31,166.31,0,0,1-29.41-1.63c-7.49-1.17-15.72-4.25-23.26-1.84-6.35,2-9.27,7.72-13.72,12.14-7.61,7.54-15.58.22-20.82-6.31a274,274,0,0,1-30.72-48.82c-1.22-2.45-4.41-1-4.66,1.26-1.45,13.47-3.18,27.84-10.26,39.7-3,5-9,13.37-15.67,13.18-6.32-.18-7.12-15.44-8-20.28-4.89-26.74-8.37-54.83-25.86-76.78-1.28-1.61-3.6-.45-4.18,1.11a256.83,256.83,0,0,0-15.75,77c-.12,2.4.23,6.67-1.8,8.5-2.53,2.28-9-2.29-11.24-3.69a61.87,61.87,0,0,1-13.51-11.65c-7.54-8.66-11.46-19.16-15.59-29.7-3.44-8.73-7.18-17.65-13.78-24.51-5-5.2-16.52-12.57-22.44-4.43-4,5.54-.58,12.63,6,12.73,9.22.13,18.34-3.77,25.36-9.57a40.09,40.09,0,0,0,14.49-27.22c.68-7.12-.27-14.8,3.14-21.38,1.63-3.13,4.29-6,8-6.31,3.53-.28,6.88,1.45,7.63,5.09l3.07-3.08-18.86-4.61,1.75,3.08,7.7-28.46c1.46-5.38,1.92-11.51,8.74-11.88,5-.28,10.07-.13,15.09-.2,9.51-.11,19-.26,28.55-.34s18.75.26,27.69,3.47c8.56,3.07,16.44,7.72,25.2,10.3a90.52,90.52,0,0,0,25.29,3.46c17.93.05,35.62-4.16,52.78-8.94,6.2-1.72,15.3-2.87,19.39-8.53s.8-12.87-2.94-17.83c-8.4-11.14-22.39-18.92-36.52-18.9-5.24,0-11.13,2.08-11.95,7.94a7.25,7.25,0,0,0,1.25,5.43c2.09,2.79,4.2,2,7.2,1.18,15.41-3.94,31.73-9,42-22,9.21-11.67,10.58-26.26,2.58-39-7.57-12-20.35-23.24-34.17-27.21C281.06,85.32,265.85,91,252,97.29s-30.3,16.23-46.11,12.07c-9.26-2.44-13.5-10.06-13.94-19.23-.38-7.78-.16-18.82,5.62-24.74,6.78-6.94,16.38-2.53,15.28,7-1,8.68-9.85,12.89-17.17,15.42C163.15,99.14,120.14,110.05,90.46,86c-5.54-4.49-10.57-10.25-17.79-12-5.32-1.26-12-.22-15.07,4.79-2.32,3.77-2.21,9.48,1,12.77,4.34,4.51,9.07,1.85,10.89-3.23,4.13-11.52,5.59-31.57-7-38.7-11.33-6.41-24.68,3.15-27,14.68-1.4,7.08.38,14.19,3.56,20.52,1.44,2.88,5.75.35,4.31-2.52Z" transform="translate(-7.42 -5.02)"/><path class="cls-3" d="M41,122.72c-1.45,9.14,3.74,18.61,12.76,21.58C62,147,74.88,141.46,70.54,131.07a2.55,2.55,0,0,0-3.07-1.75A13.58,13.58,0,0,0,58.8,146c2.05,7.66,9.19,13,16.66,14.77,7.81,1.85,42.7-1.07,36-15.36a2.5,2.5,0,0,0-2.83-1.15,9.74,9.74,0,0,0-2.06,16.8c8,6.18,17.7.38,23.86-5.41l-4.18-1.1c4,11.55,17.2,12.39,27.26,9.3,3.39-1,6.66-2.68,10.1-3.53,4.75-1.17,8.08,1,12.47,2.55a102.17,102.17,0,0,0,22.06,4.84c3.19.36,3.16-4.64,0-5a95.61,95.61,0,0,1-19.86-4.37c-4.92-1.66-9.42-4.48-14.73-3.23-5.62,1.33-10.74,4.27-16.51,5.2-6.06,1-13.72-.58-16-7.09a2.52,2.52,0,0,0-4.17-1.1c-3.36,3.14-7.31,6.54-12.19,6.52a7.88,7.88,0,0,1-5.81-2.14c-1.87-2.09-2-6.16,1.06-7.41L107.15,148c1.55,3.3-11,6.61-13.06,7.14a39,39,0,0,1-14.88,1.29,19.61,19.61,0,0,1-12.94-6.72c-3.9-4.81-4.5-13.15,2.53-15.52l-3.08-1.75c3.48,8.32-8.86,8.7-13.55,5.62a14.37,14.37,0,0,1-6.39-14c.5-3.15-4.32-4.51-4.82-1.33Z" transform="translate(-7.42 -5.02)"/></g><g id="Layer_1" data-name="Layer 1"><path class="cls-4" d="M62.18,47.68C97.9,25,146,23.35,183.15,43.54c7.23,3.92,14,8.58,21.27,12.49,31.17,16.84,68.67,18.73,103.5,12.26s67.66-20.71,100.14-34.83c-1.21,17.85-7.53,35-15,51.24-9.15,20.07-20.24,39.57-35.63,55.38-30.9,31.76-77,45.73-121.26,44.4-28-.84-56.38-7.19-83.56-.6-11.18,2.71-21.71,7.53-32.16,12.32l-75,34.39c-2.45-14,0-28.33,2.34-42.34,8-47.43,15.11-95.61,10.34-143.47" transform="translate(-7.42 -5.02)"/><path class="cls-5" d="M63.44,49.83A119,119,0,0,1,127.66,32c24.1.24,45.3,8.08,65.67,20.47a144.68,144.68,0,0,0,64.88,21.27c23.68,1.87,47.47-1.43,70.33-7.57,27.85-7.49,54.39-19,80.78-30.52l-3.76-2.16c-1.26,16.26-6.54,31.77-13.1,46.6a245.66,245.66,0,0,1-20.31,37.78,138.58,138.58,0,0,1-63.56,51.66c-24.73,10-51.54,13.65-78.1,12.24-30.59-1.63-61-7.42-90.62,3.48-15.6,5.74-30.56,13.37-45.65,20.29l-50,22.92,3.67,1.5c-2.6-16.3,1-32.66,3.62-48.71,2.43-14.68,4.71-29.39,6.55-44.16,3.81-30.61,5.57-61.52,2.6-92.28-.31-3.18-5.31-3.21-5,0,3,31.41,1.13,63-2.85,94.22-2,15.93-4.59,31.79-7.24,47.63-2.49,14.82-4.89,29.62-2.5,44.63.27,1.74,2.37,2.09,3.67,1.49l45.56-20.88c14.83-6.8,29.54-14.1,44.68-20.2,15.39-6.19,31.11-8.58,47.65-8.2,16.29.38,32.46,2.71,48.74,3.4,53,2.25,107.07-17,139.13-60.81,9.83-13.42,17.59-28.29,24.3-43.48,6.94-15.69,12.45-31.93,13.78-49.12.16-2.09-2.2-2.84-3.76-2.16-46.39,20.17-95.16,41.1-146.87,37.53A142.83,142.83,0,0,1,224.64,62C212.51,58,201.89,51.69,191,45.17a124.19,124.19,0,0,0-130.08.35c-2.72,1.7-.21,6,2.53,4.31Z" transform="translate(-7.42 -5.02)"/><path class="cls-6" d="M30.73,410.55c10.06-69.4,3-140.07,6.38-210.12,1.65-34.65,5.86-69.17,6.13-103.85.18-24-1.53-48.15.74-72.08L77.44,25c2,13.81,2,27.84,1.9,41.8L78.11,314.36c-.14,28.37-.29,56.76-2.15,85.08a6.92,6.92,0,0,1-.9,3.57,6.77,6.77,0,0,1-3.65,2.2,97.12,97.12,0,0,1-40.65,4.37" transform="translate(-7.42 -5.02)"/><path class="cls-7" d="M33.14,411.22c7.11-49.83,5.74-100.18,5.5-150.36-.13-25.07.18-50.12,1.81-75.13s4.12-50.23,5-75.42c1-28.59-1.54-57.27,1-85.81L44,27l33.46.48L75,25.64c3.75,26.62,1.75,54.27,1.61,81.07l-.4,81.86c-.28,54.46,0,109-1,163.4-.12,7.26-.29,14.51-.55,21.77-.26,7.59.41,16.29-1.14,23.72-1,4.86-3.85,5.78-8.22,7a95.63,95.63,0,0,1-11,2.27,98.68,98.68,0,0,1-23.61.4c-3.2-.31-3.18,4.69,0,5a99.57,99.57,0,0,0,39.53-3.89c4.31-1.36,7.27-2.73,8.06-7.5,1.12-6.8.87-14.13,1.15-21,1.18-28.74,1.07-57.52,1.21-86.28l.87-174.7.24-47.91c.08-15.54.2-31.05-2-46.47a2.5,2.5,0,0,0-2.41-1.83L44,22a2.56,2.56,0,0,0-2.5,2.5c-2.25,25-.43,50-.78,75-.35,25.2-2.68,50.31-4.51,75.43-3.62,49.76-1.86,99.47-2.31,149.3-.26,28.62-1.51,57.28-5.56,85.64-.45,3.15,4.37,4.51,4.82,1.33Z" transform="translate(-7.42 -5.02)"/></g></svg>