<svg id="Layer_1" data-name="Layer 1" xmlns="http://www.w3.org/2000/svg" viewBox="0 0 335.64 402.45"><defs><style>.cls-1{fill:#76c14d;}.cls-2{fill:#0c8b44;}.cls-3{fill:#dd3b26;}.cls-4{fill:#f8ec24;}</style></defs><title>four</title><path class="cls-1" d="M91.38,16.39A757.81,757.81,0,0,1,38.23,193.26q94.1,5,188.37,5.32l-.92,205.5,60.13,1.14c1.65,0,3.43,0,4.73-1s1.84-3.05,2.14-4.83a750.81,750.81,0,0,0,6.89-201.84l56.59-.92c2,0,4.15-.14,5.58-1.5s1.64-3.51,1.77-5.47q1.32-20.94.82-42c-.05-1.87-.15-3.87-1.28-5.35-1.52-2-4.32-2.38-6.83-2.57a293,293,0,0,0-51.21.65,5.17,5.17,0,0,1-3.67-.53c-1.19-.91-1.34-2.61-1.38-4.11l-3.3-109c-.07-2.15-.27-4.6-2-5.94-1.22-1-2.89-1.07-4.45-1.14Q260.63,18.51,231,18.22a702.12,702.12,0,0,1-15.35,101.57c-.43,1.89-1,3.95-2.56,5.09a8.17,8.17,0,0,1-4.54,1.06l-89,3.07q13.72-52,29.18-103.63Q121,18.89,93.19,13.17" transform="translate(-31.53 -10.7)"/><path class="cls-2" d="M89,15.72A762.29,762.29,0,0,1,36.07,192a2.54,2.54,0,0,0,2.16,3.76q94.11,5,188.37,5.32l-2.5-2.5-.92,205.5a2.54,2.54,0,0,0,2.5,2.5l56.25,1.07c6.23.11,11.45.17,13-6.9,2-9,3-18.46,4.23-27.63a754.53,754.53,0,0,0,6.61-111.4q-.49-32.13-3.73-64.15l-2.5,2.5,41-.66c5.66-.1,11.47.18,17.11-.31,4.57-.4,7.34-2.71,8.13-7.26,2-11.71,1.26-24.64,1.16-36.48,0-4.27.9-10.49-1.74-14.24-2.47-3.52-7.07-3.67-10.95-4a288.25,288.25,0,0,0-39.43,0c-3,.2-6.82,1.12-9.82.82-3.52-.34-2.57-2.83-2.67-6.1l-.6-19.82-2.46-81.25c-.12-4,.43-9.39-3.32-12.07-2.2-1.57-5.12-1.44-7.68-1.56-3.95-.18-7.91-.31-11.86-.44q-22.73-.78-45.46-1a2.55,2.55,0,0,0-2.5,2.5,704.39,704.39,0,0,1-14.2,96.17c-.39,1.73-.52,3.84-1.24,5.45-1.51,3.38-4.43,3.6-7.48,3.7l-12.86.45-23.74.82-49.45,1.7,2.41,3.17Q135.64,77.61,151.08,26A2.53,2.53,0,0,0,149.34,23q-27.66-6.47-55.48-12.2c-3.15-.65-4.49,4.17-1.33,4.82Q120.35,21.31,148,27.79l-1.75-3.08Q130.82,76.3,117.08,128.35a2.51,2.51,0,0,0,2.41,3.16l55.39-1.91,27.69-1c6-.2,12.43.64,14.85-6,2.81-7.8,3.81-16.79,5.38-24.92q2.56-13.33,4.61-26.76,4-26.23,6.05-52.69l-2.5,2.5q17.79.18,35.58.69,8.9.25,17.79.6c3.14.12,8.44-.68,9.76,3.49.83,2.64.22,6.48.31,9.25l2.16,71.35.51,16.84c.15,5-.69,11,.74,15.82a5.68,5.68,0,0,0,4.65,4.17c5.3.95,11.91-.8,17.3-1.07a267.57,267.57,0,0,1,35.48.38c4,.33,5.74,1.41,6.59,5.49.49,2.38.1,5.19.12,7.63q.07,9.06-.19,18.12-.13,4.77-.38,9.53c-.16,3.32.5,8-2.2,10-2.52,1.91-6.79,1.17-9.85,1.22l-9.76.16-40,.65a2.53,2.53,0,0,0-2.5,2.5,756.54,756.54,0,0,1,3.27,104.07q-1,25.8-3.73,51.47-1.47,13.71-3.45,27.36-.84,5.77-1.77,11.55c-.73,4.53-.58,10.76-6.55,10.68-19.72-.25-39.44-.75-59.16-1.12l2.5,2.5.92-205.5a2.53,2.53,0,0,0-2.5-2.5q-94.23-.32-188.37-5.32l2.16,3.77A767.5,767.5,0,0,0,93.79,17.05c.55-3.15-4.27-4.5-4.82-1.33Z" transform="translate(-31.53 -10.7)"/><path class="cls-3" d="M40.86,286.63q-5.36,17.1-9.25,34.59A2.53,2.53,0,0,0,35.28,324a188.07,188.07,0,0,0,18.35-9.32l-3.76-2.16a168.7,168.7,0,0,1,.08,22,2.52,2.52,0,0,0,3.76,2.16,242.08,242.08,0,0,0,29.53-21.27c2.47-2.08-1.08-5.6-3.53-3.54a232.52,232.52,0,0,1-28.52,20.49L55,334.59a168.7,168.7,0,0,0-.08-22,2.53,2.53,0,0,0-3.76-2.16,188.15,188.15,0,0,1-18.35,9.33l3.67,2.82q3.9-17.49,9.25-34.59c1-3.08-3.86-4.4-4.82-1.33Z" transform="translate(-31.53 -10.7)"/><path class="cls-3" d="M104.68,333.86c-.71-6.9-11.15-4.66-15.12-2.12-5.23,3.34-7.61,10.53-4,16,3.39,5.2,10.56,5,15.2,1.72,6.43-4.54,6.55-13.06,5.35-20.07-.54-3.16-5.36-1.82-4.82,1.33.68,4,1,8.62-1.19,12.24-1.57,2.58-5.14,4.78-8.24,3.67-3.41-1.23-3.65-5.75-1.92-8.42a8.48,8.48,0,0,1,4.72-3.29c1.33-.41,4.6-1.23,5.72,0l-.73-1.77.08.75c.33,3.17,5.33,3.2,5,0Z" transform="translate(-31.53 -10.7)"/><path class="cls-3" d="M117.52,336.16c1,10.74-6.66,19.92-6.87,30.62,0,1.46,1.65,3.05,3.17,2.41l22.56-9.49c.13-.05,3.84-1.39,3.21-1.66.36.16-.14,4.73-.19,5.55-.25,4.71-.75,9.39-1.45,14.06a2.54,2.54,0,0,0,3.08,3.07c8.62-2.06,16.57-8.15,24.18-12.51,2.79-1.6.28-5.92-2.52-4.31-7.16,4.1-14.91,10.07-23,12l3.07,3.07a157.8,157.8,0,0,0,1.72-17.23c.11-2.76.8-7-2.38-8.44-3.45-1.52-9.22,2.49-12.26,3.77l-17.36,7.3,3.16,2.41c.21-10.71,7.91-19.7,6.87-30.62-.31-3.18-5.31-3.21-5,0Z" transform="translate(-31.53 -10.7)"/><path class="cls-3" d="M182.09,358l-20.22,41.11c-1.41,2.88,2.9,5.42,4.32,2.53l20.21-41.11c1.42-2.88-2.89-5.42-4.31-2.53Z" transform="translate(-31.53 -10.7)"/><path class="cls-3" d="M154,411.19a2.14,2.14,0,0,1,1.94,0l-1.49-3.68c0,.06-.33.58-.21.39s-.28.18-.08.07a2.87,2.87,0,0,1-.44.17.86.86,0,0,1-.89-.27c-2.23-2.32-5.76,1.21-3.53,3.54,2.63,2.75,7.76,2.12,9.47-1.37a2.55,2.55,0,0,0-1.5-3.67,6.25,6.25,0,0,0-4.6,0,2.58,2.58,0,0,0-1.74,3.08,2.51,2.51,0,0,0,3.07,1.74Z" transform="translate(-31.53 -10.7)"/><path class="cls-2" d="M227.45,310.09c2-5,6.48-14.75,13.6-11.29,4.1,2,6,7.08,9.5,9.88,7.75,6.17,13.47.68,18.16-6,1.3-1.84,2.41-4.25,4.13-5.73,3.19-2.75,6.26-.59,8.28,2.41,2.12,3.16,3.6,6.84,6.87,9.06,7.28,4.95,13.37-2.06,16.28-8.24,1.36-2.89-2.95-5.44-4.32-2.52-1.05,2.22-2.46,5.57-4.77,6.78-3.49,1.82-6-1.47-7.65-4.08-2-3.18-3.73-6.88-7.14-8.82-8.3-4.72-13.06,4.78-17.16,10.21-2.5,3.31-5.69,6.16-9.77,2.89-1.89-1.52-3.17-3.69-4.68-5.56-2.34-2.88-5.17-5.44-9-5.88-9.39-1.08-14.21,8.28-17.14,15.54-1.21,3,3.63,4.28,4.82,1.33Z" transform="translate(-31.53 -10.7)"/><path class="cls-4" d="M229.54,257.48c.39-5.28,1.75-12.26,7.66-14.06,5.69-1.74,9.2,3.87,12.65,7.18,6,5.75,11.53-.24,16.78-4a31.54,31.54,0,0,1,4.79-3.33c3.81-1.76,6.87.07,9.83,2.4,3.39,2.68,6.25,6,9.57,8.72,7.19,6,9.53-.76,12.37-7.11,1.3-2.91-3-5.46-4.32-2.52-.83,1.86-2,6.37-3.73,6.33s-4.37-3.49-5.56-4.61c-3-2.87-6.15-6-10-7.77a11.25,11.25,0,0,0-10-.09,43.32,43.32,0,0,0-6.21,4.19c-1.81,1.31-4.35,4-6.42,4.63-4.07,1.28-7.47-5-10.74-7.08a12.67,12.67,0,0,0-10.34-1.72c-8.24,2.43-10.77,11.29-11.33,18.88-.24,3.21,4.76,3.2,5,0Z" transform="translate(-31.53 -10.7)"/><path class="cls-4" d="M220.11,119.86c3.29-3.59,7.21-8.12,12.47-8.3,5-.17,7.39,4.56,10.64,7.47,5.27,4.72,10.87,3.26,16-.79,1.63-1.27,4.2-4.07,6.44-4.13,3.76-.09,4.74,2.57,6,5.31,1.36,3.07,2.47,7.07,5.21,9.26,7.81,6.21,13.81-11.35,20.47-6.06,2.49,2,6.05-1.53,3.53-3.53a9.45,9.45,0,0,0-9.77-1.5c-3.58,1.35-9.26,9.08-12.45,5.28-2.81-3.35-2.72-8.67-6.07-11.81-2.8-2.62-6.51-2.54-9.89-1.14-4.13,1.69-8.71,8.42-13.51,7.09-4-1.11-6.25-6.41-9.73-8.59-8.63-5.4-17.21,1.73-22.87,7.9-2.18,2.37,1.35,5.91,3.53,3.54Z" transform="translate(-31.53 -10.7)"/><path class="cls-4" d="M228.41,75.14c4.13-.87,7.55-2.87,11.1-5.07,4.06-2.52,9.66-6.16,14.55-3.61,6.19,3.22,8.3,13.69,17.27,10.86,2.62-.82,4.55-2.81,6.48-4.67,1.1-1.05,2.67-3.1,4.31-3.2,2.16-.12,2.31,2.19,3.36,3.85,2.8,4.44,9.11,4.6,12.62,1,2.25-2.31-1.28-5.84-3.54-3.54-4.15,4.25-5.26-3.28-7.45-5.21a6.73,6.73,0,0,0-5.84-1.18c-6.36,1.38-10.16,12.7-17,5.86-5.12-5.14-7.73-10.62-16.11-9.37-7.9,1.17-13.4,7.82-21.12,9.45-3.15.67-1.82,5.49,1.33,4.82Z" transform="translate(-31.53 -10.7)"/></svg>