<svg id="Layer_1" data-name="Layer 1" xmlns="http://www.w3.org/2000/svg" xmlns:xlink="http://www.w3.org/1999/xlink" viewBox="0 0 392.98 409.83"><defs><style>.cls-1{fill:#ebe83d;}.cls-2{fill:#79c143;}.cls-3{fill:#e0f3fd;}.cls-4{fill:#79b9e6;}.cls-5{fill:#f47721;}.cls-6{fill:#dd3b26;}.cls-7{fill:#457ec1;}.cls-8{fill:url(#radial-gradient);}.cls-9{fill:#1f215a;}.cls-10{fill:#cbe2f5;}.cls-11{fill:#9bb0db;}.cls-12{fill:#fde494;}.cls-13{fill:#bd8f57;}</style><radialGradient id="radial-gradient" cx="142.16" cy="275.7" r="120.45" gradientUnits="userSpaceOnUse"><stop offset="0" stop-color="#c1e8fb"/><stop offset="1" stop-color="#5279bc"/></radialGradient></defs><title>mine</title><path class="cls-1" d="M233.18,224.69l-57.9-17.88c-5.2-1.61-10.71-3.41-14.19-7.61-2.4-2.88-3.55-6.59-4.23-10.27-3.14-17.1,3-34.78,12.51-49.32s22.25-26.64,34.11-39.35a420.43,420.43,0,0,0,61-84.35,188.22,188.22,0,0,0,72,77.67c24.39,14.47,53.46,24.62,68.71,48.53,2.25,3.54,4.18,7.46,4.3,11.65.13,4.66-2,9.07-4.37,13.08a92.48,92.48,0,0,1-65.92,43.75l47.2,34.79c6.7,5,13.52,10,18.39,16.77s7.54,15.63,5,23.56l-11.75.33c-1.78,3.45-.08,7.58.35,11.45s-2.17,9-5.91,7.9c-1.53-.44-2.58-1.79-3.52-3.07l-38.26-51.95c10.4,39.93,20.83,80.05,25.12,121.09.79,7.59,2.42,16.68,9.5,19.5,3.58,1.42,9.08,2.21,8.72,6-.29,3.17-4.56,3.89-7.74,3.73l-20.48-1c-2-.11-4.21-.25-5.9-1.41a10,10,0,0,1-3.24-4.85c-5.14-13.27-4-28-5.33-42.15s-6.19-29.6-18.63-36.48a311,311,0,0,0,6,95.54c2.53,1.95,6.12,1.41,9.22,2.21s5.85,5,3.34,6.95a5.46,5.46,0,0,1-3.36.81,229.43,229.43,0,0,1-29.07-1.42c-2.67-.29-5.46-.69-7.62-2.27-2.49-1.82-3.7-4.87-4.73-7.78-5.8-16.35-9.65-33.31-13.48-50.22l-18-79.52c-.78-3.43-1.9-7.3-5.08-8.81-2.51-1.19-5.46-.46-8.14.29L208.53,285.5c-12.05,3.37-25.13,7.46-32,17.88-5.88,8.89-5.91,20.45-10.5,30.07-1,2.11-2.26,4.21-2.38,6.55-.41,7.58,10.81,13.81,7.28,20.53-1.92,3.67-7.41,4-10.89,1.76s-5.42-6.18-7.19-9.92a10.15,10.15,0,0,1-19.3-4.9c-4.6-3-10.56-2.23-16-1.8s-11.77,0-15.19-4.25.41-12.75,5.55-10.84c-4-1.54-8.25-3.18-11.15-6.4s-4-8.51-1.22-11.85c4.66-5.65,14.31-1,20.93-4.19,4.38-2.08,6.41-7,8.71-11.3,10.42-19.35,31.73-29.94,52.27-37.72s42.47-14.47,58.21-29.8l-8.41-5.44" transform="translate(-20.27 -13.42)"/><path class="cls-2" d="M233.85,222.28c-19.3-6-38.63-11.85-57.9-17.88-4.22-1.32-8.87-2.67-12.1-5.88-3.73-3.72-4.71-9.53-5.14-14.57a60,60,0,0,1,4.18-26.38c6.85-17.89,20-32.12,33.05-45.75a501,501,0,0,0,35.83-41.2,427.64,427.64,0,0,0,34.86-53.45h-4.32a192.74,192.74,0,0,0,78.15,81.56c16.12,9,33.54,16.44,47.86,28.33,6.93,5.76,14.2,13.07,17.52,21.61,4.14,10.63-5.57,22.27-12.26,29.83a91,91,0,0,1-55,29.67c-2.38.35-2.1,3.47-.6,4.57L382,245.22c12.52,9.23,30.46,21.68,25.37,39.83l2.41-1.84-11.75.33a2.59,2.59,0,0,0-2.41,1.83,14.54,14.54,0,0,0-.53,7.74c.36,2.35,2.3,9.24-1.7,9.3-2.54,0-5.43-5.63-6.92-7.65l-6.95-9.44-26.67-36.21c-1.6-2.18-5.33-1-4.57,1.92,10.55,40.5,20.08,80.78,25.25,122.36.74,6,2,12.66,6.48,17a17.13,17.13,0,0,0,6.73,3.68c1.53.53,6.07,1.27,2.65,3.95-1.3,1-6.29,0-7.76-.05l-14-.69c-3.62-.19-7-.77-8.59-4.52a44.65,44.65,0,0,1-2.29-7.6c-2.18-9.65-2-19.62-2.62-29.44-1-16.21-5.16-34.24-20.2-43.08a2.53,2.53,0,0,0-3.76,2.16,316.63,316.63,0,0,0-.37,52.8q1,12.78,3,25.47,1,6.16,2.21,12.29c.63,3.1.48,6.24,3.49,7.83,2.27,1.2,7,.35,8.67,1.77l.33,1.42c.77,1.26.55,1.74-.65,1.44-.55.29-2.29,0-2.92,0q-3.87,0-7.76-.15-6.31-.22-12.59-.8c-6.2-.56-11.58-.75-14.24-7.25-6.6-16.09-10-33.83-13.8-50.74l-12.09-53.3c-2.05-9.05-4-18.14-6.15-27.15-1.18-4.88-3.19-10.08-8.71-11.1-3.19-.6-6.45.52-9.48,1.36q-7.14,2-14.27,4l-25.67,7.18c-13,3.62-27.56,6.35-38.31,15-5.79,4.66-9.21,10.91-11.35,17.93-1.25,4.11-2.08,8.33-3.28,12.45s-3.3,7.58-4.56,11.52c-2,6.1,1.58,10.68,4.82,15.53,2.1,3.15,4.49,8.68-1.81,8.87-5.2.16-7.94-6.19-9.81-10.09-.83-1.73-3.44-1.53-4.32,0-1.76,3.06-5.17,5.21-8.83,4.31-4.25-1.05-4.87-4.42-5.81-7.95s-5.44-4.2-8.56-4.54c-5-.55-9.91.64-14.87.31-3-.19-6.47-.86-8.24-3.5-1.29-1.9-1-7.68,2.83-6.75,3.19.79,4.29-3.68,1.33-4.82-4.46-1.71-10.67-3.94-11.87-9.25-1.46-6.46,4.54-7.16,9.25-7.11,6.45.07,12.22-.14,16.58-5.55,4.66-5.77,7-12.85,12.08-18.48a76.28,76.28,0,0,1,18-14.37c27.31-16.25,61.16-19.81,84.82-42.32a2.53,2.53,0,0,0-.51-3.93l-8.4-5.44c-2.71-1.75-5.22,2.58-2.53,4.32l8.41,5.44-.51-3.93c-21.34,20.31-51.69,24.82-77.17,37.88-11.17,5.73-21.71,13.15-29.3,23.29-3.74,5-6.6,15.27-12.81,17.49-5.49,2-11.68-.65-17.15,1.71-5.15,2.22-7,7.78-5.38,12.95,2.15,6.84,9,9.76,15.16,12.12l1.33-4.82c-8-2-12.6,8.45-8.37,14.51,7.41,10.62,22.61,1.69,32.12,6.95L131,347.47a12.75,12.75,0,0,0,24,6.16h-4.32c2.65,5.53,6.16,11.66,12.87,12.47,4.93.59,10-2.24,10.5-7.48s-3.68-9.11-6.07-13.18c-2.52-4.29-1.48-7,.53-11.46a68.51,68.51,0,0,0,3.71-11.27c2-7.86,3.72-16,9.67-21.94,5.51-5.5,13-8.48,20.32-10.8,17.66-5.61,35.75-10.1,53.6-15.09,4.66-1.3,12.22-5,15.41.39,2.15,3.65,2.44,9.19,3.36,13.25l6.38,28.13c4.36,19.23,8.57,38.51,13.14,57.69,2.15,9.06,4.48,18.09,7.27,27,2,6.37,3.67,15.21,10.29,18.44,3.08,1.5,6.77,1.65,10.11,2q7.72.76,15.5,1c4.41.14,15,2.28,17.16-3.38,2.59-6.81-5.93-9.18-10.59-9.87-4.83-.72-4.59-8.95-5.3-13Q337,387.84,336,379.1a315.91,315.91,0,0,1-.74-64.27L331.47,317c17.91,10.52,17.37,34.09,18.39,52.17.51,9,1.14,19.53,5.61,27.6,4.37,7.89,16.74,5.77,24.33,6.15,4.95.25,16.35,1.95,16.76-5.91.38-7.23-9.75-6.7-13.42-10.53-2.76-2.9-3.66-7.32-4.3-11.13-.95-5.73-1.34-11.56-2.12-17.31-1.45-10.76-3.28-21.46-5.37-32.11-5.05-25.64-11.63-50.94-18.22-76.22l-4.57,1.93,36.52,49.59c2.82,3.83,7,9.48,12.19,5.43,6.86-5.33.78-13.45,3.2-19.95l-2.41,1.84,11.75-.33a2.55,2.55,0,0,0,2.41-1.83c4.78-17.06-8-30.68-20.5-40.16-16.9-12.82-34.15-25.21-51.22-37.79l-.6,4.57a95.41,95.41,0,0,0,50.87-24.47C398,181.87,404.62,173.83,409,165c4.7-9.41,2.91-17.62-2.87-26-10.75-15.63-27.36-25.48-43.77-34.23C343.81,94.87,325.71,85.09,309.86,71a187.76,187.76,0,0,1-43.23-56.39,2.53,2.53,0,0,0-4.32,0A425,425,0,0,1,229.09,66c-12.6,16.64-26.75,31.72-41,46.91-13.06,13.88-25.54,28.91-31.39,47.37-4.4,13.87-6.81,36.87,8.28,45.22,9.34,5.17,21,7.27,31.14,10.4l36.42,11.25c3.08,1,4.4-3.87,1.33-4.82Z" transform="translate(-20.27 -13.42)"/><path class="cls-3" d="M289.87,108.2a76.48,76.48,0,0,0-16.75,63.16,14.34,14.34,0,0,0,2.22,6c2.46,3.29,7,4.14,11.11,4.26,5.59.16,11.37-.63,16.17-3.5,6.33-3.78,10.21-10.81,11.63-18s.65-14.71-.56-22c-1-6-2.31-12-5-17.49a14.85,14.85,0,0,0-4.81-6,18.39,18.39,0,0,0-5.16-2.06l-9.38-2.67" transform="translate(-20.27 -13.42)"/><path class="cls-4" d="M288.11,106.43a79.66,79.66,0,0,0-17.17,35.4A78.62,78.62,0,0,0,269.46,162c.33,5.59.56,13.25,4.56,17.6,7.59,8.26,25.1,4.93,32.77-1.42,10.79-8.94,11.68-23.92,9.91-36.8-1.11-8.12-2.56-17.06-7-24.12-4.35-6.89-12.4-7.79-19.7-9.87-3.1-.89-4.42,3.93-1.33,4.82,3.54,1,7.29,1.78,10.73,3.07,4.62,1.73,6.59,4.86,8.34,9.3,2.79,7.05,4.08,15.12,4.62,22.65,1.13,15.95-5.46,31.35-23.38,31.85-3.29.1-7.37.1-10.14-1.94-3.18-2.35-3.52-7.14-4-10.79a72.91,72.91,0,0,1,.34-20.12A74.65,74.65,0,0,1,291.64,110c2.05-2.45-1.46-6-3.53-3.53Z" transform="translate(-20.27 -13.42)"/><path class="cls-3" d="M317.75,108.14c.85,10.85,1.7,21.78,4.63,32.26s8.09,20.61,16.32,27.74c3.14,2.72,7.42,5.07,11.3,3.59,2.8-1.08,4.54-3.85,5.79-6.57a44.11,44.11,0,0,0-4.59-43.75c-3.78-5.08-8.61-9.27-13.49-13.3-2.79-2.31-5.85-4.69-9.47-5-4.13-.32-7.91,2.17-11.31,4.54" transform="translate(-20.27 -13.42)"/><path class="cls-4" d="M315.25,108.14c1.42,18.12,3.05,37.41,13.74,52.79,4,5.7,9.95,12.95,17.38,13.66,6.88.65,10.53-5.24,12.72-10.89a46.6,46.6,0,0,0-5.73-43.55,68.29,68.29,0,0,0-18.15-17c-7-4.31-13.27-1.92-19.54,2.4-2.63,1.82-.13,6.15,2.52,4.32,2.83-2,5.74-4.08,9.29-4,4,0,6.88,2.77,9.79,5.19,5,4.18,10,8.67,13.51,14.22a41.87,41.87,0,0,1,4.5,34.27c-.79,2.57-2.11,7.34-4.58,8.91-4.26,2.71-8.37-.25-11.45-3.1a48.67,48.67,0,0,1-10.78-15.38c-6-13-7.12-27.66-8.22-41.76-.25-3.19-5.25-3.21-5,0Z" transform="translate(-20.27 -13.42)"/><path class="cls-5" d="M327.05,152.88a11.42,11.42,0,0,0-9.59,1.12c-2.74,1.89-4.21,5.72-2.81,8.74a9.07,9.07,0,0,0,2.71,3.17c2.7,2.14,6.71,3.42,9.54,1.44s3-6,2.93-9.41c-.06-2.59-.27-5.52-2.27-7.17s-4.64-1.34-7.07-1" transform="translate(-20.27 -13.42)"/><path class="cls-6" d="M327.71,150.47c-6.26-1.56-13.85.28-15.75,7.24-1.81,6.6,4.52,12.57,10.8,13.06,7.33.57,9.65-6.28,9.58-12.36,0-3-.26-6.38-2.35-8.73-2.44-2.75-6.11-2.83-9.5-2.44-3.16.36-3.2,5.36,0,5,1.83-.21,3.85-.61,5.35.63s1.41,2.88,1.48,4.58c.11,3,.35,8.09-3.74,8.31-3.28.17-7.7-3.2-6.8-6.72,1.07-4.21,6.09-4.62,9.6-3.75,3.13.78,4.46-4,1.33-4.82Z" transform="translate(-20.27 -13.42)"/><path class="cls-5" d="M310.07,180.66c3.44,2,7.55,2.43,11.52,2.81,6.49.63,13.78,1,18.72-3.23.31,5-.57,10.18-3.52,14.18s-8.29,6.45-13.06,5.06c-3.52-1-6.2-3.86-8.42-6.78a57.72,57.72,0,0,1-8-14.58" transform="translate(-20.27 -13.42)"/><path class="cls-6" d="M308.8,182.82c8.94,4.52,24.39,6,32.77-.42l-3.76-2.16c.27,7.69-4.18,20.78-14.53,16.32-6.71-2.9-11.07-12.7-13.57-19.11-1.15-3-6-1.67-4.82,1.33,3.41,8.76,10,23.05,21,23.55,12,.55,17.25-11.93,16.9-22.09-.06-1.7-2.16-3.38-3.76-2.16-6.85,5.22-20.35,4.15-27.72.42-2.87-1.45-5.4,2.86-2.53,4.32Z" transform="translate(-20.27 -13.42)"/><path class="cls-7" d="M313.8,133.56c-3.59-7.16-12.75-9.57-20.25-8.91-9.5.83-7.49,13.14-7.45,19.93s3.13,13.67,11.2,12.47c8.58-1.27,14-10.85,16.13-18.41.87-3.1-4-4.43-4.83-1.33a25.57,25.57,0,0,1-6.85,12c-2.49,2.32-7.42,4.61-9.88.81-1.32-2-.77-6.12-.73-8.36,0-2.52.05-5.06.19-7.58.18-3.39,1.82-4.69,5.25-4.46,5.1.33,10.42,1.45,12.91,6.39,1.44,2.88,5.76.35,4.31-2.52Z" transform="translate(-20.27 -13.42)"/><path class="cls-7" d="M326.55,132.45c-1-5.43,10.82-4.25,13.48-3.61,4.84,1.17,12.24,5.75,7.17,11.19-2.86,3.07-11.53,4.23-15,1.46-3.12-2.47-5.23-7.87-6.44-11.42-1-3-5.86-1.73-4.82,1.33,2.63,7.72,6.87,16.44,16,16.42,7.08,0,17.15-2.4,17-11.39-.22-15.86-35.07-18.55-32.21-2.65.57,3.16,5.39,1.82,4.82-1.33Z" transform="translate(-20.27 -13.42)"/><path class="cls-8" d="M256.34,285.54c3.22,24.35-10.28,47.48-23.8,68-7.16,10.87-14.71,21.88-25.31,29.42-16.73,11.91-38.48,13.51-59,14.08-32.26.89-67.09-.59-92.63-20.31A76.56,76.56,0,0,1,28.9,337.12c-2.15-7.65-3.08-15.58-3.92-23.48-3.21-30.23-4.86-62.39,9.1-89.39,4.81-9.3,11.32-17.62,18.17-25.54S66.57,183,75.33,177c18-12.23,40.32-16,61.87-19.2,20.7-3.1,42.07-6,62.38-.85,8.2,2.07,16,5.39,23.81,8.7,4.83,2.06,9.74,4.16,13.7,7.59,6.23,5.4,9.42,13.44,12,21.27a250.18,250.18,0,0,1,12.35,85.39c-.16,5.46-.7,11.4-4.44,15.38" transform="translate(-20.27 -13.42)"/><path class="cls-9" d="M253.84,285.54c3.07,26.37-12.17,50.06-26.28,71-7,10.33-14.75,20.46-25.65,26.91s-23.36,9-35.71,10.12C122.93,397.59,66,397.1,40,355.82c-6.9-10.94-10.16-23.06-11.75-35.8a352.49,352.49,0,0,1-2.9-37.57c-.43-25.6,4.33-50,19.78-70.93,7.61-10.3,16.39-20.43,26.37-28.51,9.77-7.9,21.31-12.95,33.35-16.31,11.74-3.29,23.85-5.1,35.89-6.87,13.9-2,28-3.81,42.07-2.9,15.51,1,30.23,6.43,44.19,13,6.8,3.23,11.86,7.57,15.35,14.3,3.24,6.24,5.21,13.22,7.14,20A246.89,246.89,0,0,1,258,249.81q1,10.8,1,21.65c0,7,1,16.33-3.82,22.09-2.05,2.46,1.47,6,3.54,3.54,7.75-9.31,5.54-24.75,5-36a254,254,0,0,0-5.8-43.59c-2.84-12.78-5.9-27.17-12.88-38.45s-19.47-15.4-31.1-19.94c-28.06-11-56.81-7.08-85.78-2.41-13.25,2.14-26.51,4.85-38.93,10-12.2,5.11-22.57,12.82-31.69,22.32-9.35,9.74-18.4,20.46-24.86,32.37-6.2,11.42-9.66,24-11.27,36.89-1.73,13.76-1.37,27.7-.29,41.5,1.08,13.61,1.95,27.89,6.22,40.94,7.56,23.16,25.43,40.86,47.88,49.81,23.47,9.36,49.66,9.65,74.56,8.88,14.24-.44,28.87-1.37,42.41-6.14s24-13.35,32.67-24.59A227.72,227.72,0,0,0,250,328.69c6.48-13.5,10.59-28.08,8.84-43.15-.37-3.15-5.38-3.19-5,0Z" transform="translate(-20.27 -13.42)"/><path class="cls-10" d="M108.12,172.2A151.62,151.62,0,0,1,94,136.06a5.41,5.41,0,0,1,0-3.68c.68-1.36,2.31-1.89,3.77-2.28a251.69,251.69,0,0,1,109.35-4.33c2.93.54,6.06,1.23,8.1,3.4,1.75,1.84,2.4,4.45,2.85,6.94a71.81,71.81,0,0,1-1.29,31.31,6,6,0,0,1-1.83,3.39,6.06,6.06,0,0,1-3,.88,563,563,0,0,1-105.06,2.15" transform="translate(-20.27 -13.42)"/><path class="cls-11" d="M110.28,170.94A152.66,152.66,0,0,1,99.35,145.6c-1-3-4.6-10.8-1.47-12.92,1.37-.93,4.32-1.14,6-1.55,2.73-.65,5.47-1.27,8.22-1.83a250,250,0,0,1,87-2.35c3.91.59,9,.78,12.52,2.65,4.86,2.56,4.8,11,5,15.74a70.29,70.29,0,0,1-.87,15.06c-.3,1.72-.33,5-1.39,6.35-2.51,3.14-7.51,3-11.11,3.37q-14.55,1.42-29.15,2.11a570.54,570.54,0,0,1-67.19-.89c-3.21-.23-3.19,4.77,0,5a569.26,569.26,0,0,0,74,.53q8.75-.51,17.49-1.3c5.12-.46,11.56-.16,16.39-2,3.83-1.44,4.49-5.52,5.26-9.12a75.4,75.4,0,0,0,1.63-17.28c-.17-8.18-.46-19.48-9.52-22.74-4.84-1.75-10.4-2.16-15.46-2.85-5.78-.79-11.58-1.4-17.4-1.79a254.74,254.74,0,0,0-69.47,4.86c-4.88,1-12.43,1.45-16.43,4.68-3,2.41-2.2,5.81-1.36,9.09a154.1,154.1,0,0,0,13.91,35c1.53,2.83,5.85.31,4.32-2.53Z" transform="translate(-20.27 -13.42)"/><path class="cls-12" d="M149.83,143c-2.23-10.24-1.61-20.9-3.16-31.27s-5.94-21.18-15-26.39c-5.12-2.94-11.44-3.93-15.63-8.09-4.33-4.31-5.25-10.85-7.18-16.65S102.48,48.65,96.37,49a62.75,62.75,0,0,1,15.47-10.27,11.59,11.59,0,0,1,6.09-1.47c6.26.72,7.64,9,10.57,14.54C134.92,64,152.63,65.52,161,76.53c3.89,5.15,5.22,11.74,6.44,18.09L171.13,114c1.41,7.35,2.75,15.31-.53,22s-13.32,10.44-18.43,5" transform="translate(-20.27 -13.42)"/><path class="cls-13" d="M152.24,142.32c-3.86-19.21,1-45-17.56-58-4.07-2.85-9-4-13.28-6.29-5.73-3.1-7.36-8.55-9.06-14.41-2.3-8-6.49-16.87-16-17.16l1.77,4.27c4-3.54,16.28-14.21,21.9-9.95,3.8,2.88,4.5,9.38,6.92,13.32,5.42,8.86,15.86,12.08,24.24,17.29,13.11,8.14,13.73,23.65,16.4,37.49,1.43,7.48,3.89,15.78,1.79,23.34-1.66,6-9.73,12.38-15.46,7.06-2.35-2.19-5.89,1.34-3.53,3.53,7.31,6.8,18.92,2.14,22.69-6.26,2.69-6,2.22-12.57,1.22-18.88-1.35-8.46-3.14-16.9-4.82-25.3-1.24-6.2-2.82-12.52-6.77-17.6-3.39-4.35-8.1-7.32-12.88-9.92-5-2.7-10.33-5-14.62-8.73-4.67-4.08-5.78-9.48-8.6-14.71-7.6-14.12-23.88-1.37-32,5.78-1.71,1.5-.28,4.21,1.76,4.27,10.45.32,10.84,15.74,14.45,22.77,4.31,8.37,12.87,9.1,20.16,13.63,18,11.17,12.9,38.2,16.44,55.8.63,3.15,5.45,1.82,4.82-1.33Z" transform="translate(-20.27 -13.42)"/></svg>