<svg id="Layer_1" data-name="Layer 1" xmlns="http://www.w3.org/2000/svg" viewBox="0 0 318.94 416.07"><defs><style>.cls-1{fill:#c72c27;}.cls-2{fill:#3a6db5;}.cls-3{fill:#231f20;}</style></defs><title>one</title><path class="cls-1" d="M141.32,213.87a889.8,889.8,0,0,0-32.81-113.16c70.69-28.66,104.72-43.52,174.9-73.38,3.67,22.83,1.27,46.13-.18,69.21-4.89,78.28,1.39,156.78,7.68,235a4.59,4.59,0,0,0,.9,2.87c.86.92,2.28,1,3.54.95l81.63-1q.42,41-.8,81.95c-.07,2.46-.27,5.22-2.11,6.87s-4.33,1.56-6.67,1.48l-196.17-6.86L99.6,415.22a6.79,6.79,0,0,1-3.22-.64c-1.71-1-2.22-3.19-2.56-5.13l-13.4-76.59a781.25,781.25,0,0,1,127.35-6.42,646.79,646.79,0,0,1,2.82-170.39C178.23,183.53,178.53,192.18,140,210" transform="translate(-58.15 -8.55)"/><path class="cls-2" d="M121.52,197.5A889.8,889.8,0,0,0,88.71,84.34C159.39,55.69,193.42,40.83,263.61,11c3.67,22.82,1.26,46.12-.18,69.2-4.9,78.28,1.39,156.79,7.67,235A4.58,4.58,0,0,0,272,318c.86.92,2.28,1,3.54,1l81.62-1.05q.42,41-.79,81.95c-.07,2.47-.28,5.22-2.12,6.87s-4.33,1.57-6.67,1.49l-196.17-6.87-71.62-2.5a6.74,6.74,0,0,1-3.22-.65c-1.72-1-2.22-3.18-2.56-5.13L60.61,316.49A782.38,782.38,0,0,1,188,310.07a647.64,647.64,0,0,1,2.82-170.39c-32.35,27.48-32.05,36.13-70.6,53.92" transform="translate(-58.15 -8.55)"/><path class="cls-3" d="M123.93,196.83A906.12,906.12,0,0,0,91.12,83.68l-1.75,3.07C148.17,62.91,206.49,38,264.87,13.12l-3.67-1.49c4,26,.49,52.34-.83,78.41-1.35,26.64-1.47,53.33-.78,80,.68,26.37,2.14,52.71,4,79q1.36,19.74,2.94,39.47.74,9.38,1.49,18.74c.32,4.05-.62,11.38,3.8,13.57,1.75.88,3.88.62,5.77.61,4,0,8-.1,11.94-.15l21.9-.28,45.79-.59-2.5-2.5q.21,21.46,0,42.93-.11,10.25-.32,20.49-.1,5.36-.24,10.73c-.09,3.23,1.06,12-2.93,13.48-2.59,1-6.89.06-9.52,0l-9.91-.35-22.79-.8-42.6-1.49-172.62-6c-3.87-.14-8.13.17-11.94-.42-2.46-.38-4-.39-5.13-2.83-.68-1.42-.65-3.59-.92-5.11l-4.13-23.57L63,315.83,60.61,319A793.82,793.82,0,0,1,188,312.57a2.5,2.5,0,0,0,2.5-2.5,651.62,651.62,0,0,1,2.74-169.72,2.52,2.52,0,0,0-4.18-2.43c-11.31,9.64-21.56,20.36-32.62,30.26s-24,17-37.48,23.26c-2.91,1.35-.38,5.66,2.52,4.31C135,189.46,148,182.29,159.2,172.37s21.8-21.06,33.35-30.92L188.37,139a656.56,656.56,0,0,0-2.91,171l2.5-2.5A793.82,793.82,0,0,0,60.61,314a2.56,2.56,0,0,0-2.41,3.17l8.25,47.13,4.12,23.56c.76,4.29.73,10.67,5.34,12.77,2.91,1.33,6.75.84,9.86.95l10,.35,25.86.9,45.7,1.6,95.11,3.33L310,409.41l21.79.76c6.47.23,14.42,1.87,20.76.2,6.64-1.75,6.34-8.87,6.49-14.4q.35-12.68.55-25.36.4-26.34.13-52.69a2.54,2.54,0,0,0-2.5-2.5l-76.65,1c-1.16,0-4,.59-5,.07-2.77-1.51-1.86-3.23-2.26-5.27-.63-3.12-.54-6.68-.79-9.86q-.79-9.85-1.56-19.72-1.45-18.75-2.73-37.51c-3.38-50.28-5.37-100.74-3-151.11,1.31-27.55,5-55.23.8-82.7-.27-1.78-2.37-2.05-3.67-1.49C204.37,33.48,146.44,58.25,88,81.93c-1.17.48-2.25,1.69-1.74,3.08a906.12,906.12,0,0,1,32.81,113.15c.69,3.14,5.51,1.82,4.82-1.33Z" transform="translate(-58.15 -8.55)"/></svg>