<svg id="Layer_1" data-name="Layer 1" xmlns="http://www.w3.org/2000/svg" xmlns:xlink="http://www.w3.org/1999/xlink" viewBox="0 0 366.51 392.25"><defs><style>.cls-1{fill:url(#Orange_Yellow);}.cls-2{fill:#3a6db5;}.cls-3{fill:#dd4826;}</style><linearGradient id="Orange_Yellow" x1="66.71" y1="225.39" x2="408.32" y2="225.39" gradientUnits="userSpaceOnUse"><stop offset="0" stop-color="#fff33b"/><stop offset="0.04" stop-color="#fee72e"/><stop offset="0.12" stop-color="#fed51b"/><stop offset="0.2" stop-color="#fdca10"/><stop offset="0.28" stop-color="#fdc70c"/><stop offset="0.67" stop-color="#f3903f"/><stop offset="0.89" stop-color="#ed683c"/><stop offset="1" stop-color="#e93e3a"/></linearGradient></defs><title>seven</title><path class="cls-1" d="M231.38,376.42l-43.28.81c-26.25.49-53,.92-78.15-6.6-19-5.69-38.4-18.13-42.48-37.57-3.31-15.74,4.58-32.12,16.16-43.28,4.49-4.32,9.85-8.62,10.82-14.77.63-4-.81-8.09-2.23-11.93L74.05,213.9l61.6,32.9c1.64.88,3.54,1.78,5.28,1.14s2.7-2.8,3.33-4.69c4-11.92,7.82-25.35,2.24-36.6-4.16-8.39-12.81-13.7-17.69-21.69-8.79-14.38-3.41-32.72-.62-49.34A145.68,145.68,0,0,0,129.47,97c9.07,18.84,28,31.29,38,49.68,6.43,11.89,8.7,25.49,12.31,38.51s9.13,26.32,20,34.4c12.16-22.67,24.7-47.91,19-73-2.86-12.65-10.19-24-12.73-36.71-3.47-17.46,2.42-35.27,8.23-52.1C235.71,88.67,257.49,121.58,261,159c1.51,16-.38,32.43,3.64,48,2.51,9.69,7.25,18.68,12.71,27.08a6.71,6.71,0,0,0,2.44,2.57c2.89,1.4,5.91-1.66,7.49-4.46,8.25-14.61,10-31.95,10.35-48.73s-.47-33.78,3.29-50.14,13-32.45,28.17-39.66q.18,79.29,6,158.44c13.23-.95,23.88-12.29,28.1-24.87s3.31-26.21,2.19-39.43-2.4-26.77,1.16-39.54c13,12.87,16.91,32.67,15.38,50.93s-7.7,35.75-12,53.56-6.66,36.88-.68,54.19c15.95-6.12,26.95-23.26,25.85-40.32,12,18.3,13.2,41.49,13.15,63.39,0,9.74-.3,19.9-4.88,28.49-5.67,10.64-16.9,17-27.84,22-17.56,8.07-36.78,14.37-56,11.92-9.37-1.2-18.34-4.44-27.48-6.84-18.37-4.82-37.45-6.2-56.39-7.56" transform="translate(-41.81 -10.81)"/><path class="cls-2" d="M53.06,147.69a579.74,579.74,0,0,1-8.74-62.63c96-27.21,192.11-54.47,290.33-71.78a901.4,901.4,0,0,1-2,198.73c-2.21,18.23-5,36.4-6.43,54.71-1.83,23.23-1.52,46.57-2.57,69.85q-1.28,28.24-5.22,56.27c-.24,1.75-.55,3.61-1.74,4.91-1.51,1.66-4,1.93-6.22,2.07a344,344,0,0,1-84.15-5.1c.73-62.22,10-124,19.3-185.52q7.65-50.73,15.29-101.47a1012.78,1012.78,0,0,1-205.46,71,55.75,55.75,0,0,1-2-33.85" transform="translate(-41.81 -10.81)"/><path class="cls-3" d="M55.47,147a588.18,588.18,0,0,1-8.65-62L45,87.47C119.61,66.31,194.3,45.13,270.12,28.6q32.47-7.08,65.19-12.91l-3.16-2.41a905.84,905.84,0,0,1-.49,185c-3.2,30.27-8.13,60.23-9.2,90.71-1.07,30.19-1.3,60.25-4.83,90.3-.52,4.4-.31,10.08-1.86,14.19-1.76,4.65-6.93,3.94-11.11,4.13q-12.46.57-25,.23a345,345,0,0,1-52.77-5.55l1.84,2.41c1-74.9,13.81-149,24.95-222.9l9.55-63.42a2.54,2.54,0,0,0-3.67-2.83A1017.2,1017.2,0,0,1,54.74,176.3l3.07,1.75a55.07,55.07,0,0,1-2-32.52c.75-3.12-4.07-4.46-4.83-1.32a60,60,0,0,0,2,35.17,2.58,2.58,0,0,0,3.08,1.75,1024.61,1024.61,0,0,0,206.06-71.24l-3.68-2.82c-11.17,74.11-24.37,148.28-31.18,223-2,21.52-3.22,43.09-3.5,64.69a2.54,2.54,0,0,0,1.84,2.41A356.44,356.44,0,0,0,272,402.57q11.52.57,23,.36c6.23-.11,14.82,1,20.64-1.62,5-2.2,5.08-7.57,5.71-12.33q1.68-12.56,2.84-25.18c1.41-15.52,2.1-31.07,2.48-46.64.4-16.17.6-32.36,1.79-48.51,1.21-16.34,3.53-32.58,5.61-48.83a920.1,920.1,0,0,0,7.31-96.27,910.25,910.25,0,0,0-4.29-110.27A2.54,2.54,0,0,0,334,10.87c-76.42,13.52-151.6,33-226.31,53.74q-32,8.91-64,18a2.51,2.51,0,0,0-1.84,2.41,602.92,602.92,0,0,0,8.83,63.3c.61,3.15,5.43,1.82,4.82-1.33Z" transform="translate(-41.81 -10.81)"/></svg>