<svg id="Layer_1" data-name="Layer 1" xmlns="http://www.w3.org/2000/svg" xmlns:xlink="http://www.w3.org/1999/xlink" viewBox="0 0 339.82 420.09"><defs><style>.cls-1{fill:url(#linear-gradient);}.cls-2{fill:#f15c22;}.cls-3{fill:#4772b8;}.cls-4{fill:#232663;}</style><linearGradient id="linear-gradient" x1="221.74" y1="28.95" x2="221.74" y2="405.95" gradientUnits="userSpaceOnUse"><stop offset="0" stop-color="#fff"/><stop offset="1" stop-color="#c2e4f8"/></linearGradient></defs><title>three</title><path class="cls-1" d="M57.69,32.27A2629.85,2629.85,0,0,0,373.14,42c-5.25,20.94-22,36.68-37.35,51.82A829.31,829.31,0,0,0,259,180.68c23.92-1.06,48.8-.48,70.39,9.87,23.55,11.28,40.77,33.42,49.93,57.88s10.87,51.15,9.32,77.22c-.84,14-2.61,28.12-6.87,41.52-1.85,5.87-4.25,11.7-8.31,16.33-4.86,5.56-11.72,8.94-18.63,11.55-23,8.66-48,10-72.59,10.59q-42.83,1-85.63-1c-20.1-.93-40.32-2.38-59.74-7.6a157.69,157.69,0,0,1-38.34-16c-5.47-3.19-10.82-6.77-14.9-11.6-5.74-6.79-8.54-15.53-10.79-24.13a271.73,271.73,0,0,1-8.68-58.93c-.07-2.07-.07-4.32,1.18-6s3.68-2.3,5.84-2.72a428.67,428.67,0,0,1,60.92-7.4,203.3,203.3,0,0,0,14.72,51.6c2.12,4.89,4.5,9.78,8.1,13.71,4.33,4.74,10.18,7.81,16.17,10.1,21.11,8.08,44.84,7.31,66.68,1.51,11.08-3,22.35-7.52,29.51-16.47,5.9-7.39,8.34-17,9.44-26.35a113.27,113.27,0,0,0-6.79-53.76c-2.8-7.27-6.71-14.63-13.45-18.53-7.28-4.21-16.27-3.53-24.64-2.73l-71.24,6.84a7.22,7.22,0,0,1-4.15-.41c-3.24-1.73-2.11-6.6-.5-9.91,19.85-41,42.9-80.32,65.93-119.61Q138,107.58,54.34,115.78L60.3,29" transform="translate(-51.83 -9.21)"/><path class="cls-2" d="M57.69,34.77q122.64,11.11,246,10.81,34.75-.09,69.5-1.12l-2.41-3.16C363.35,69.09,337.3,88.16,318.22,108a845.1,845.1,0,0,0-61.38,71.45c-1.16,1.51.42,3.83,2.16,3.76,23.2-1,47.75-.74,69.13,9.53,18.43,8.85,32.78,24.38,42.36,42.25,11,20.5,15.33,43.89,16.05,67a263.07,263.07,0,0,1-1.27,34.72c-1.28,12.43-3.36,25.71-8.63,37.15-5.09,11.05-14.89,16.31-25.94,20.1a161.27,161.27,0,0,1-35.24,7.42c-24.83,2.65-50.11,2.36-75,2.08-48.44-.55-101,.31-143.58-26.28-12.46-7.8-17.94-18.6-21.58-32.45a265.31,265.31,0,0,1-7.41-41q-.57-5.75-.91-11.51c-.19-3.42-1.54-9.21,2.31-11.4,2.36-1.34,6.62-1.41,9.2-1.87q5.2-.93,10.42-1.73a429.21,429.21,0,0,1,43.24-4.35L129.69,271a204.59,204.59,0,0,0,15.61,53.67c3.22,7.11,7.28,13.33,13.8,17.81,6.85,4.7,15.2,7.45,23.23,9.27,17.3,3.92,35.48,2.89,52.64-1.21,14.92-3.56,30.5-9.77,38.09-24,7.78-14.63,8-33.63,6-49.68-1.89-14.81-6-35.09-18.5-44.9-6.26-4.92-14.2-5.86-21.92-5.53-9.85.43-19.72,1.77-29.54,2.72L178.41,232l-13.85,1.33c-2.1.2-6.56,1.43-7.68-1.28-.73-1.76,1.34-5.09,2.07-6.63,19.13-40.56,42.44-79.23,65.09-117.88a2.52,2.52,0,0,0-2.16-3.76Q138,105.13,54.34,113.28l2.5,2.5L62.8,29c.22-3.21-4.78-3.19-5,0l-6,86.83a2.5,2.5,0,0,0,2.5,2.5q83.54-8.15,167.54-9.49L219.72,105c-18.81,32.1-37.63,64.21-54.73,97.26-4,7.8-8.61,15.65-11.84,23.81-1.63,4.12-2.25,10,2.64,12.13,3.24,1.41,7.4.26,10.75-.07l15.83-1.52,27.7-2.66c9.49-.91,19-2.2,28.55-2.62s18.22,1.68,23.9,10c9.64,14.17,12.64,34.44,12.45,51.2-.19,17.57-3.8,36-20.18,45.37-14.48,8.32-33.27,11.22-49.74,11.22-18.22,0-42.74-4-52.58-21.32s-15-38.6-18-58.22a2.51,2.51,0,0,0-2.41-1.83q-20.47,1.05-40.77,4c-6.33.91-12.65,1.95-18.93,3.17-4.87.94-9.49,2.14-10.56,7.65-1,5.35.18,11.84.65,17.25q.85,9.92,2.42,19.77c2.06,13.09,4.56,26.8,9.61,39.12,9.07,22.13,35,32.63,56.46,39.2,26,8,53.6,8.87,80.55,9.8,28.45,1,57,1.26,85.49-.07a244.62,244.62,0,0,0,37.3-4.19c11.69-2.38,24.57-5.71,34.52-12.61,9.69-6.73,13.93-17.26,16.89-28.29,3.22-12,4.67-24.5,5.41-36.91,1.55-25.86-.12-52.52-9.1-77-8.22-22.43-22.86-43.07-43.34-55.82C314.93,178,286.15,177,259,178.18l2.16,3.76a830.43,830.43,0,0,1,64.51-74.46c18.79-19.25,42.66-37.69,49.88-64.85a2.53,2.53,0,0,0-2.41-3.17Q250.05,43,127,35.15q-34.68-2.22-69.3-5.38c-3.21-.29-3.19,4.71,0,5Z" transform="translate(-51.83 -9.21)"/><path class="cls-3" d="M281.65,18.47c-.59-4.67-6.49-6.29-11.19-6.56a127,127,0,0,0-22.4.74c-8.38,1-16.83,2.94-24.05,7.32s-13.1,11.54-14.36,19.89C208,50.58,214.26,61.2,222.6,68.13c8.7,7.23,19.7,11.38,30.91,12.9,8.08,1.1,16.6.82,24-2.69,11.29-5.39,18.15-18.13,18-30.65s-6.64-24.46-16-32.74" transform="translate(-51.83 -9.21)"/><path class="cls-4" d="M284.06,17.81c-1.69-7.35-10.09-8.31-16.4-8.52-10.59-.35-21.64.34-31.91,3.12-16.35,4.44-32,17.92-28.26,36.45,3.65,18.18,22.16,29.55,39,33.42,17.76,4.09,37.34,1.34,46.79-16,10-18.32,2.6-39.8-12-53.14-2.37-2.17-5.92,1.36-3.53,3.53,10.86,9.91,18.11,24.78,14.2,39.63-4.3,16.36-18.68,23.91-34.9,22.57-15.09-1.24-31.33-7.82-40.09-20.72-9.67-14.23-3.47-30.33,11.32-37.68,8.11-4,17.42-5.36,26.35-6,5.47-.38,22.94-2.93,24.67,4.6.72,3.14,5.54,1.81,4.82-1.32Z" transform="translate(-51.83 -9.21)"/><path class="cls-3" d="M239.67,313a63.85,63.85,0,0,1,5.41-38.73c3.26-6.69,8.1-13.12,15.07-15.75,4.31-1.63,9-1.66,13.64-1.67l17,0c3.75,0,7.61,0,11.07,1.46,4.23,1.78,7.32,5.51,9.82,9.36,10.74,16.6,12.82,39.56,1.8,56A42.24,42.24,0,0,1,237.13,309" transform="translate(-51.83 -9.21)"/><path class="cls-4" d="M242.08,312.34a62.6,62.6,0,0,1,1.67-27.75c2.36-8,6.46-17.2,13.73-21.9,8-5.16,19.53-3.34,28.59-3.36,4.22,0,8.73-.4,12.86.63,5,1.25,8.36,5.39,11,9.59,8.51,13.55,11.34,31.54,4.85,46.49s-22.37,24.37-38.56,23.69c-17.7-.75-32.7-14.47-36.68-31.41-.74-3.13-5.56-1.81-4.82,1.33,4.08,17.39,18.7,31.74,36.51,34.57,17.41,2.76,35.95-5.6,45.24-20.61,10.18-16.45,8.31-38.27-1-54.63-4.72-8.24-10.78-14-20.6-14.59-5.72-.32-11.52,0-17.26,0-5.44,0-11.16-.32-16.45,1.22-10,2.91-16.1,12.06-19.87,21.18a67.59,67.59,0,0,0-4,36.91c.52,3.17,5.33,1.83,4.82-1.32Z" transform="translate(-51.83 -9.21)"/><path class="cls-3" d="M93.48,414.21l-.77-21.6c-.13-3.69-.25-7.45.8-11,3.2-10.71,15.6-15.5,26.64-17.23,10.5-1.65,21.41-1.86,31.57,1.24s19.52,9.83,24.16,19.38,3.77,22-3.42,29.81c-5.47,5.95-13.64,8.62-21.59,10a143.8,143.8,0,0,1-21.23,1.92c-7.64.22-15.52.09-22.57-2.87s-13.13-9.38-13.54-17" transform="translate(-51.83 -9.21)"/><path class="cls-4" d="M96,414.21c-.3-8.4-1-16.9-.85-25.3s3.9-14,11.22-17.74c12.62-6.48,30.42-7.22,43.86-3.37,14,4,26.93,15.76,26,31.33-1,17.64-18.17,22.7-33,24.32-14.51,1.57-45,4.44-47.16-16.54-.32-3.18-5.33-3.21-5,0,2,20.12,24.4,22.91,40.55,22.32,16.51-.6,39.63-2.15,47.25-19.75,6.72-15.52-1.28-32.26-14.8-40.92-15.17-9.73-36.45-9.91-53.24-4.55-7.69,2.46-15.34,6.85-18.75,14.5-2.13,4.78-2,10-1.79,15.08.23,6.87.49,13.74.73,20.62.11,3.2,5.11,3.22,5,0Z" transform="translate(-51.83 -9.21)"/></svg>