<svg id="Layer_1" data-name="Layer 1" xmlns="http://www.w3.org/2000/svg" xmlns:xlink="http://www.w3.org/1999/xlink" viewBox="0 0 394.73 399.06"><defs><style>.cls-1{fill:url(#Orange_Yellow);}.cls-2{fill:#e74a25;}.cls-3{fill:#7d2818;}</style><linearGradient id="Orange_Yellow" x1="45.8" y1="221.97" x2="411" y2="221.97" gradientUnits="userSpaceOnUse"><stop offset="0" stop-color="#fff33b"/><stop offset="0.04" stop-color="#fee72e"/><stop offset="0.12" stop-color="#fed51b"/><stop offset="0.2" stop-color="#fdca10"/><stop offset="0.28" stop-color="#fdc70c"/><stop offset="0.67" stop-color="#f3903f"/><stop offset="0.89" stop-color="#ed683c"/><stop offset="1" stop-color="#e93e3a"/></linearGradient></defs><title>two</title><path class="cls-1" d="M135.34,205.61a536.39,536.39,0,0,0-65.92-64.16c49.82-40.77,101-82.33,161.8-103.51,17.1-6,35-10.25,53.14-9.67s36.45,6.38,49.84,18.56c20.73,18.86,26.29,49.24,26.13,77.26-.34,60-23.93,122.18-72.1,158-15.31,11.38-32.6,19.82-50.17,27.26a534.62,534.62,0,0,1-87.6,28.48q130.23-3.46,260.54-1.61Q404.27,372.9,400,410,237.3,415.2,74.51,415.72l-27.23-63.4c-.93-2.17-1.88-4.53-1.3-6.82s2.52-3.92,4.37-5.38a445.46,445.46,0,0,1,82.83-51.53c11.36-5.44,22.95-10.4,34.17-16.12,24.77-12.65,47.88-29.23,65.43-50.81s29.29-48.42,30.17-76.22c.18-5.72-.17-11.72-3-16.66-4.68-8-14.86-11.24-24.17-11.25-22.73,0-43,14.58-58.35,31.33s-27.74,36.3-44.8,51.33" transform="translate(-16.27 -16.66)"/><path class="cls-2" d="M108.2,196.46a535.58,535.58,0,0,0-65.92-64.15C92.1,91.53,143.29,50,204.08,28.79c17.1-5.95,35-10.24,53.14-9.67s36.45,6.38,49.84,18.57c20.73,18.85,26.29,49.24,26.13,77.25-.34,60-23.93,122.19-72.1,158-15.31,11.38-32.6,19.83-50.17,27.27a536.54,536.54,0,0,1-87.6,28.48q130.23-3.46,260.54-1.62-6.74,36.69-11,73.77-162.67,5.24-325.47,5.74L20.14,343.18c-.93-2.17-1.88-4.54-1.3-6.83s2.52-3.92,4.37-5.37A445.51,445.51,0,0,1,106,279.44c11.36-5.44,23-10.4,34.17-16.12,24.77-12.64,47.88-29.23,65.43-50.81s29.29-48.42,30.16-76.22c.19-5.72-.16-11.71-3-16.66-4.68-8-14.86-11.24-24.17-11.24-22.73,0-43,14.57-58.35,31.32S122.51,176,105.45,191" transform="translate(-16.27 -16.66)"/><path class="cls-3" d="M110,194.7a545.78,545.78,0,0,0-65.91-64.16v3.54c36.63-30,73.64-60.17,115.46-82.73C198.84,30.13,254.7,6.51,296.94,33.12c37.33,23.52,37.07,77.78,31,116.29-6.49,41-24.18,81.22-54.67,110-19.48,18.42-43.62,30.4-68.2,40.51a541,541,0,0,1-82.4,26.31c-2.74.64-2.15,5,.67,4.91q101.4-2.69,202.86-2.18,28.85.15,57.68.56l-2.41-3.16q-6.76,37-11.11,74.43l2.5-2.5q-126.75,4.07-253.57,5.29-36,.33-71.9.45l2.16,1.24q-12.84-29.9-25.67-59.77c-1.57-3.66-4-7-1.06-10.93,1.37-1.81,4.23-3.47,6-4.81q6.1-4.68,12.37-9.14Q53.3,312,66,304.14A494.94,494.94,0,0,1,119.29,276c17.35-8,34.44-16.27,50.17-27.19,29.08-20.18,53.44-48.07,63.82-82.41a118.74,118.74,0,0,0,4.81-25.95c.58-8.3.6-17.46-4.73-24.36-9.27-12-27.65-11.66-40.85-7.92-40.94,11.59-59.24,54.66-88.82,81.09-2.41,2.15,1.14,5.68,3.53,3.54,26.53-23.71,42.64-59.24,75.58-75.52,13.08-6.47,37.7-12.12,47.44,3,5.18,8.06,3.23,20.45,1.79,29.39a119.87,119.87,0,0,1-6.85,24.82c-13.39,34-40.67,60.15-71.6,78.57-16.43,9.79-34.09,17-51.25,25.38A444.65,444.65,0,0,0,52.8,306.63Q39.56,315.32,27,324.94c-3.17,2.42-7.27,4.81-9.41,8.27s-1.26,7.05.18,10.63c8.66,21.52,18.33,42.68,27.48,64a2.44,2.44,0,0,0,2.16,1.24q126.82-.4,253.61-3.66,35.94-.93,71.86-2.08a2.58,2.58,0,0,0,2.5-2.5q4.29-36.72,10.93-73.1a2.55,2.55,0,0,0-2.41-3.17q-101.43-1.43-202.87.34-28.85.51-57.67,1.28l.66,4.91a540.86,540.86,0,0,0,78-24.54c23.13-9.27,46.14-19.82,65.65-35.58,33.66-27.22,54.48-67.71,63.14-109.64,4.36-21.08,6.16-43.12,4.1-64.59C333,76.4,327.09,55.55,313,40.13,278,1.7,219.44,17.9,178.68,36.28c-51.16,23.08-95.05,59-138.16,94.26a2.5,2.5,0,0,0,0,3.54,545,545,0,0,1,65.91,64.15c2.11,2.44,5.63-1.11,3.53-3.53Z" transform="translate(-16.27 -16.66)"/></svg>