<svg id="Layer_1" data-name="Layer 1" xmlns="http://www.w3.org/2000/svg" viewBox="0 0 317.38 362.1"><defs><style>.cls-1{fill:#faf066;}.cls-2{fill:#abd037;}.cls-3{fill:#e0eefa;}.cls-4{fill:#4b6bb3;}.cls-5{fill:#faa22d;}.cls-6{fill:#dd4e26;}.cls-7{fill:#489dd6;}.cls-8{fill:#3c65b0;}</style></defs><title>drummer</title><path class="cls-1" d="M128.45,244.68c-16.31-1.6-33-3.29-47.82-10.2s-27.81-20.15-29.8-36.41c-2.06-16.77,7.92-33.07,21-43.81s29-17.21,44.06-24.82a302.28,302.28,0,0,0,108.1-92c4.6,22.39,20.51,40.91,38.49,55s38.41,24.82,56.83,38.36,35.33,30.82,42,52.68c1.8,5.85,2.82,12.14,1.39,18.09-1.51,6.35-5.68,11.76-10.4,16.26C329,240.13,293.82,242.6,261.9,247.17c-2.19.31-4.63.8-5.85,2.64a8.05,8.05,0,0,0-1,3.8l-7,84.64c-1,11.83-.33,26.64,10.44,31.61,5.7,2.63,12.34,1.35,18.58,2s13.33,5,12.57,11.24c-.74,6-7.91,8.59-13.88,9.55A151.9,151.9,0,0,1,239,394c-4.77-.41-9.77-1.14-13.59-4-5.44-4.11-7.13-11.52-7.43-18.33s.38-13.84-1.86-20.28-8.68-12.16-15.33-10.65c-9,2-10.63,14.07-9.37,23.17s2.73,20.22-4.59,25.77c-4.1,3.1-9.65,3.21-14.8,3.19-11.85-.06-25.32-.82-32.92-9.92-1.55-1.84-2.8-4.13-2.61-6.53.33-4.15,4.7-6.74,8.74-7.7s8.48-1.13,11.86-3.55c5.24-3.74,5.83-11.16,5.94-17.6q.74-44.44,1.48-88.91c.07-4.23-.2-9.16-3.66-11.59-2.22-1.55-5.12-1.58-7.83-1.55l-23.54.3" transform="translate(-48.41 -35.03)"/><path class="cls-2" d="M128.45,242.18c-22.22-2.18-46.77-4.78-63.32-21.51-7.22-7.3-12.14-16.86-12.07-27.3C53.14,181.84,59,171,66.6,162.62c15.42-16.81,38.21-24.25,57.81-34.83a304.19,304.19,0,0,0,52.73-36.14,307.24,307.24,0,0,0,49-52.93l-4.57-.6c14.33,65.8,96.18,76,129,128.08a70.33,70.33,0,0,1,9.35,21.55c2.28,10-.09,18.54-7,26-10.08,10.88-23.94,17.45-38,21.55-14.22,4.14-29,6.07-43.63,8-5.09.69-13.76.18-17.11,4.91-1.64,2.31-1.53,5.59-1.75,8.26l-1.14,13.78-4.64,56.1c-1,12.17-3.83,27.16,2.86,38.31a18.81,18.81,0,0,0,13.29,8.92c7.12,1.21,16.09-1.41,22,3.87,8.24,7.33-4.88,12-10.55,12.84a147.16,147.16,0,0,1-28.37,1.54c-8.75-.35-19.14-.47-23.16-9.73-3.2-7.37-1.8-15.6-2.52-23.38-.59-6.45-2.53-12.75-7.66-17.06-4.22-3.53-10-5-15.09-2.45-10.39,5.19-9,19.32-7.88,28.79.78,6.71,1.67,16.23-5.18,20.24-6,3.5-15.77,2.22-22.43,1.63-7.45-.67-15.8-2.51-20.76-8.6-7.87-9.67,9-10.36,14.25-12.5,13.28-5.38,10.25-24.85,10.44-36.14l.93-56.31c.13-7.66,1.28-16.07-.05-23.65-1-5.61-4.61-9.17-10.35-9.68-8.79-.8-18,.1-26.83.21-3.22,0-3.22,5,0,5l13.73-.17c4.41-.06,11.49-1.37,15.43.8,3.78,2.08,3.4,6.86,3.35,10.7-.06,4.94-.16,9.88-.24,14.82l-1,57.3c-.13,8,.92,17.15-1.22,24.95-2.67,9.76-12,7.38-19.21,11.15-13,6.75-2.79,19.75,6.63,23.79,6.05,2.59,12.73,3.33,19.25,3.59s14,.86,19.89-2.23c12.66-6.62,7.73-22.21,7.43-33.42-.16-5.8.91-15,7.88-16.45,10.81-2.26,13.68,12.54,13.88,19.95.37,13.39.85,28.75,16.63,32.44,8.15,1.91,17.16,1.73,25.47,1.42,7.77-.28,16.43-.59,23.89-3,4.7-1.54,9.47-4.41,10.62-9.57s-2-9.64-6.26-12.2c-6.16-3.74-13-2.53-19.8-3.12-8.61-.73-13.26-6.14-14.87-14.3-1.33-6.72-.69-13.63-.13-20.39l2.36-28.54,2.36-28.55,1.14-13.78c.37-4.46-.48-12.73,5.13-13.76,14.81-2.7,29.84-3.73,44.56-7.05,24.09-5.43,63.23-21,59-51.93-4.15-30.54-31.33-53.22-55.31-69.26-27.14-18.14-58.36-33.83-75.39-63a73.82,73.82,0,0,1-8.42-21.61c-.5-2.3-3.41-2.19-4.57-.59a301.31,301.31,0,0,1-107.2,91.09c-21,10.58-44.29,19.52-57.87,39.87-11.56,17.33-11.33,38.41,2.42,54.39,17.2,20,44.65,23.21,69.31,25.63,3.2.31,3.18-4.69,0-5Z" transform="translate(-48.41 -35.03)"/><path class="cls-3" d="M196.09,138.15a174.16,174.16,0,0,0-27.66-1.7c-12,.23-24.47,1.9-34.18,8.88a16.58,16.58,0,0,0-5.79,6.49c-1.17,2.69-1.09,6.08.81,8.31,1.45,1.71,3.67,2.51,5.81,3.17a111.3,111.3,0,0,0,50.7,3.54,26.83,26.83,0,0,0,7.9-2.25,15.28,15.28,0,0,0,5.41-4.62,14.87,14.87,0,0,0,.77-16.06,13.74,13.74,0,0,0-14.69-6.1" transform="translate(-48.41 -35.03)"/><path class="cls-4" d="M196.76,135.74c-15.08-2.06-31.12-3.15-46.13,0-9.53,2-29.62,9.8-24.83,23.14,2,5.69,8.72,7,13.9,8.29a114.79,114.79,0,0,0,24.18,3.49,105.55,105.55,0,0,0,24.2-1.74c5.95-1.17,11.35-4,14.26-9.55a16.5,16.5,0,0,0-17.83-24c-3.16.61-1.82,5.43,1.33,4.82a11.25,11.25,0,0,1,13.33,12.88c-1.14,7.83-8,10.4-15,11.47A108.39,108.39,0,0,1,141,162.38c-3.16-.8-7.52-1.41-9.55-4.1-3.09-4.1.65-8.3,4-10.79,5-3.73,11.13-5.85,17.24-7.06,13.83-2.75,28.79-1.76,42.67.13,3.14.43,4.5-4.38,1.33-4.82Z" transform="translate(-48.41 -35.03)"/><path class="cls-3" d="M267.45,167.25a64.87,64.87,0,0,1-31.56-3c-4.49-1.6-9-3.89-11.6-7.9s-2.39-10.1,1.51-12.85a13.51,13.51,0,0,1,5.85-1.93c10.92-1.71,22-1.48,33.09-1.25,6.43.13,13.05.31,19,2.85,3.64,1.56,7.2,4.55,7.35,8.5.1,2.93-1.77,5.65-4.19,7.3a22.93,22.93,0,0,1-8.19,3,123.89,123.89,0,0,1-27.15,2.83" transform="translate(-48.41 -35.03)"/><path class="cls-4" d="M266.79,164.84c-11.62,1.64-26,.73-36.15-5.77-6-3.82-8.41-12.5.13-14.8,6.65-1.8,14.45-1.55,21.28-1.58,6.27,0,12.6,0,18.86.37,5,.32,15.6,1.28,17.23,7.45,3.14,11.88-29.88,11.83-36.62,11.84-3.22,0-3.22,5,0,5a132.1,132.1,0,0,0,24-2.15c5.48-1,11.77-2.11,15.5-6.67,8.88-10.83-6.08-18.66-15.05-20-7.2-1.05-14.68-.86-21.95-.88-7.9,0-16,.16-23.79,1.63-11.28,2.14-13.07,14.77-4.89,22,10.78,9.54,29.37,10.24,42.8,8.35,3.17-.45,1.82-5.26-1.33-4.82Z" transform="translate(-48.41 -35.03)"/><path class="cls-5" d="M219.73,161.89a25.94,25.94,0,0,0-26.39,8.26,9.64,9.64,0,0,0-1.94,3.29c-1,3.32,1.07,6.77,3.39,9.34,6.33,7,16.77,11.44,25.41,7.61a16.41,16.41,0,0,0-8.34-31.32" transform="translate(-48.41 -35.03)"/><path class="cls-6" d="M220.39,159.48c-10.62-2.63-25.3,1-30.66,11.52-5.6,11,10.93,21.43,19.82,23a19.31,19.31,0,0,0,22.79-17.42c.91-11.45-9.37-20.6-20.48-20-3.2.18-3.22,5.18,0,5,8.63-.49,16.86,6.53,15.39,15.65-1.39,8.64-9.52,13.5-17.81,11.63-6.93-1.56-20.6-10.24-13.37-18a23.65,23.65,0,0,1,23-6.52c3.12.77,4.46-4.05,1.33-4.82Z" transform="translate(-48.41 -35.03)"/><path class="cls-7" d="M175.17,186.29c15.1,14.72,39.29,19.21,58.67,10.89,2.59-1.11,5.32-2.46,8.09-2,5.14.94,7,8.07,4.53,12.68S238.85,215,234,216.78c-7.25,2.7-14.88,4.68-22.6,4.51-10.21-.23-20-4.21-28.88-9.25-5.89-3.33-11.77-7.44-14.72-13.54-1.39-2.87-2-6.39-.5-9.19s5.78-4.08,8-1.83" transform="translate(-48.41 -35.03)"/><path class="cls-8" d="M173.4,188.05a58,58,0,0,0,52,14.44c5.21-1.15,17.87-9,19.49-.55,1.55,8.07-9.21,11.7-15,13.62-8.55,2.83-17.39,4.18-26.3,2.32a70.92,70.92,0,0,1-21.24-8.78,37.9,37.9,0,0,1-9.38-7.27,17.94,17.94,0,0,1-3.45-5.48c-1-2.79-.11-10.09,4.47-6.71,2.59,1.91,5.09-2.42,2.53-4.32-4-2.95-9.62-1-11.7,3.33-3,6.26,1.31,13.45,5.68,17.84,10.36,10.39,28,17.57,42.61,17.3,8.27-.15,16.58-2.45,24.16-5.66,5.24-2.22,10.88-5.79,12.39-11.67,1.15-4.48-.33-10.17-4.49-12.64-6-3.54-13.15,1.8-18.94,3.34a52.93,52.93,0,0,1-49.31-12.64c-2.34-2.21-5.88,1.32-3.54,3.53Z" transform="translate(-48.41 -35.03)"/><path class="cls-7" d="M178.25,165.71c-4.14.69-9.19,1-11.71-2.32a11.37,11.37,0,0,1-1.72-4.77q-1-5.1-1.78-10.24c-.54-3.42-.76-7.52,1.92-9.71,2.88-2.35,7.15-1,10.55.52a42.07,42.07,0,0,1,5.38,2.67c4.68,2.94,8.18,8.37,7.33,13.83s-7.15,9.83-12.17,7.51" transform="translate(-48.41 -35.03)"/><path class="cls-8" d="M177.58,163.3c-2.32.36-5.88.95-8-.47s-2.42-5.14-2.84-7.43c-.78-4.24-4.46-17,4-15.23,4.78,1,10.7,4,13.31,8.27,3.37,5.48.47,15.14-7.36,12.35-3-1.08-4.35,3.75-1.33,4.82,8.35,3,16.31-4.87,15.34-13.21C189.63,143,179,135.77,170,135c-11.6-1-9.88,11.69-8.57,19.18.74,4.23,1,9.4,4.63,12.28s8.54,2.32,12.81,1.67c3.17-.48,1.82-5.3-1.33-4.82Z" transform="translate(-48.41 -35.03)"/><path class="cls-7" d="M266.08,168.14l-7.53-3.65c-2.07-1-4.22-2.08-5.55-4-1.75-2.45-1.71-5.7-1.6-8.71.13-3.85.61-8.32,3.86-10.37s7.23-.69,10.3,1.31a17.87,17.87,0,0,1,7.2,8.35,11.25,11.25,0,0,1-1.22,10.67c-2.27,3-6.68,4.29-10,2.56" transform="translate(-48.41 -35.03)"/><path class="cls-8" d="M267.34,166c-3.52-1.71-9-3.25-11.68-6.17s-2.72-11.75-.25-14.8c4.11-5.09,12,1.26,14.29,5.49,3,5.46,0,14.4-7.49,11.44-3-1.18-4.29,3.66-1.33,4.83,7.88,3.1,15.27-3.51,15.17-11.52s-7.31-15.56-15-17c-8.83-1.67-11.92,6.28-12.19,13.58-.16,4.1.14,8.46,3.22,11.51,3.32,3.29,8.58,5,12.7,7,2.88,1.4,5.42-2.91,2.52-4.32Z" transform="translate(-48.41 -35.03)"/></svg>