<svg id="Layer_1" data-name="Layer 1" xmlns="http://www.w3.org/2000/svg" viewBox="0 0 349.24 327.73"><defs><style>.cls-1{fill:#ffe989;}.cls-2{fill:#3363ae;}.cls-3{fill:#f79975;}.cls-4{fill:#ed2224;}.cls-5{fill:#b7d433;}.cls-6{fill:#4b9543;}</style></defs><title>money</title><path class="cls-1" d="M183.92,145q-27.51-34.89-57.44-67.76c55.24-5.74,110.78-9,166.31-8.22-3.81,23.49-21,42.63-28.07,65.36a26.35,26.35,0,0,0-1.52,10c.67,7.7,6.75,13.71,12.62,18.74,8.47,7.26,17.44,14.16,24.12,23.09,6.94,9.28,11.07,20.3,16.34,30.62,7.68,15,17.81,28.67,25.82,43.53S356,292,354.22,308.72c-1,8.72-4,17.09-7.44,25.13-4.7,10.83-10.47,21.44-19,29.57-11.13,10.57-26.09,16.1-40.94,20a255,255,0,0,1-143.31-4.31c-7.26-2.38-14.46-5.12-21-9.14-14.16-8.8-24.09-23.35-29.81-39s-7.56-32.47-8.28-49.13c-.44-10.28-.47-20.69,1.83-30.71C89.57,236.82,97.42,224,105.87,212A361.18,361.18,0,0,1,130,181.52c4.61-5.23,9.46-10.41,15.4-14.08,11.21-6.93,26.76-9.14,32.62-20.95" transform="translate(-57.56 -66.43)"/><path class="cls-2" d="M185.69,143.24q-27.54-34.86-57.44-67.76l-1.77,4.27c55.25-5.71,110.76-8.93,166.31-8.22l-2.41-3.16c-4.4,25-23.5,44.11-29,68.64-2.58,11.59,3.67,20.07,12.06,27.38,10.23,8.91,21,17.07,28.18,28.85,7,11.54,11.73,24.29,18.63,35.91,7.07,11.92,15.07,23.31,21.35,35.69s11,26.19,10.37,40.29c-.62,13.83-6.63,27.68-13.3,39.62s-16,21.38-28.31,27.59c-11.74,5.91-24.85,9.18-37.67,11.8a252.44,252.44,0,0,1-85.6,2.56,250.69,250.69,0,0,1-41.2-9.44c-12.59-4-24.3-9.21-33.63-18.85C92.68,338.15,88.12,308.84,87,281.82c-.72-16.65.61-32.39,8.14-47.5,7.11-14.29,17.05-27.36,27.06-39.71,9.09-11.21,18.19-22.61,31.59-28.72,9.87-4.5,20.92-8,26.39-18.14,1.52-2.83-2.79-5.36-4.32-2.52-5.4,10.05-17.5,12.82-27,17.5-12.07,5.92-20.63,16.71-29,26.91-17.34,21.15-35.42,44.69-37.72,72.88-1.18,14.52,0,29.6,2.1,44,2,13.39,5.66,26.65,12.22,38.55,5.73,10.38,13.63,19.68,23.58,26.22,11.51,7.58,25.52,11.49,38.75,14.87a257.61,257.61,0,0,0,86.44,7,253.92,253.92,0,0,0,42.31-7.33c12.32-3.24,24.79-7.55,35.22-15.05s17.84-18,23.43-29.52c5.75-11.84,10.73-24.59,10.91-37.92.41-29-18.36-53-32.45-76.71-8-13.52-13.08-29-22.49-41.67A100.31,100.31,0,0,0,287,169.36c-6-5.2-13.06-10-17.75-16.48-5.24-7.28-3.46-14.63-.55-22.43C271.49,123,275.26,116,279,109c6.76-12.54,13.68-25.14,16.17-39.32a2.54,2.54,0,0,0-2.41-3.17c-55.55-.71-111.06,2.51-166.31,8.22A2.54,2.54,0,0,0,124.71,79q29.89,32.88,57.44,67.76c2,2.52,5.51-1,3.54-3.54Z" transform="translate(-57.56 -66.43)"/><path class="cls-3" d="M160.27,145.15c-1.55-6.78,3.68-14.3,10.57-15.21,3.63-.47,7.26.65,10.79,1.62A126.6,126.6,0,0,0,241.85,133c6.68-1.48,14.19-3.38,19.93.34,4.23,2.74,6.22,7.79,8,12.52,1.1,3,2.14,6.6.26,9.19-1.12,1.54-3,2.29-4.82,2.92-27.9,9.75-58.29,9.73-87.69,6.66-5.4-.56-11.12-1.36-15.28-4.85s-5.66-10.65-1.61-14.27" transform="translate(-57.56 -66.43)"/><path class="cls-4" d="M162.68,144.48a10.65,10.65,0,0,1,3.15-9.35c3.78-3.67,8.69-2.86,13.36-1.65a151.69,151.69,0,0,0,22.35,4.28c15.68,1.63,30.36-.53,45.7-3.39,3.59-.67,7.58-1.24,11.11,0,4.37,1.56,6.55,6,8.17,10s3.48,9.09-2,11.17A106.49,106.49,0,0,1,253.05,159c-15.91,4-32.37,5.23-48.74,4.89-8.95-.18-17.92-.77-26.82-1.76-3.88-.42-8.15-.87-11.61-2.86-4-2.29-7.28-8-3.52-12,2.2-2.35-1.33-5.89-3.53-3.54-4.71,5-3.62,12.71,1.16,17.37,6.25,6.1,16.75,6,24.87,6.72,22.26,1.89,45,1.75,66.84-3.36,6.45-1.5,20.07-3,21.67-11.19,1.3-6.62-3.85-16.9-8.87-21-7.26-5.94-16.9-3-25.11-1.29a124.43,124.43,0,0,1-34.18,2.14A122.8,122.8,0,0,1,185,129.84c-5.16-1.28-10.69-3.46-16.07-2.06-7.94,2.06-12.34,10.26-11,18,.53,3.17,5.34,1.82,4.82-1.33Z" transform="translate(-57.56 -66.43)"/><path class="cls-5" d="M255.23,228.91c1.39-5.06-.86-10.57-4.45-14.42s-8.34-6.34-13-8.76c-5.26-2.74-10.61-5.51-16.41-6.78-10.64-2.34-21.65.57-32.16,3.45-5.37,1.47-10.94,3-15.1,6.75-7.51,6.66-8.25,18.17-6.46,28,2.64,14.59,11,29.51,25.05,34.13,9.65,3.16,20.1,1,30.24.56,3.34-.14,6.89,0,9.7,1.78a13.82,13.82,0,0,1,4.54,5.51c6.47,12.7,1.87,29.58-9.42,38.29s-27.85,9.2-40.35,2.36A27.4,27.4,0,0,1,176.65,310a25.51,25.51,0,0,0-2.53-4.13,8.09,8.09,0,0,0-9-2.07c-5,2.15-6.41,9.14-4.24,14.17s6.79,8.52,11.26,11.7c9.6,6.86,19.89,13.65,31.61,15,13.45,1.59,27.1-4.45,36.63-14.06s15.3-22.45,18.49-35.61c2.24-9.23,3.11-19.63-2-27.62-4.45-6.94-12.64-10.65-20.74-12.18s-16.44-1.24-24.64-2.16S194.83,249.78,189,244s-8.23-15.73-3.49-22.48c4.59-6.53,13.61-7.89,21.59-8.09,7.44-.19,16.5,1.17,19.34,8.06.84,2,1,4.31,2.07,6.22,2.22,3.93,7.47,4.89,12,4.56s9.12-1.51,13.44-.19" transform="translate(-57.56 -66.43)"/><path class="cls-6" d="M257.64,229.58c2.36-11.64-6.53-19.48-15.81-24.54-11.88-6.47-22.86-10.74-36.6-8.82a136.63,136.63,0,0,0-18.9,4.39c-5,1.44-10.06,3.24-14,6.77-7.64,6.86-8.82,18-7.55,27.63,1.38,10.38,5.4,20.78,12.36,28.71,7.7,8.78,18.12,12.06,29.58,11.77,6.76-.18,14.19-2.12,20.89-.91,7.31,1.33,9.78,9.86,10,16.42a30,30,0,0,1-17.38,28.08,36.11,36.11,0,0,1-35.33-3.77,26.61,26.61,0,0,1-6.87-8c-1.21-2-2.28-3.69-4.26-4.95a10.38,10.38,0,0,0-12,.58c-7.58,6.11-4.23,16.91,1.56,22.81,7.89,8,19.52,15.1,30,19,22.89,8.43,46.13-4.6,58.06-24.33,10.11-16.74,20.23-47.39.74-61.34-11.92-8.52-26.93-6.86-40.7-8.49-7.34-.87-15.38-2.92-20.75-8.35-5-5.06-7.59-14-2.63-20,4.39-5.34,12.56-6.13,19-6.26,5.54-.11,13.59.22,16.65,5.72,1.52,2.73,1.4,5.86,3.35,8.42a11.81,11.81,0,0,0,5.88,3.93c6.71,2.14,13.55-1.1,20.29.49,3.13.74,4.46-4.08,1.33-4.82-5.55-1.31-10.63.3-16.18.14-4.33-.12-7.22-1.53-8.63-5.83-.74-2.3-1.25-4.39-2.75-6.36-5.1-6.67-15.15-7.08-22.79-6.57-8.57.58-18.3,3.05-22.22,11.57-3.57,7.77-.63,17.32,5.2,23.15,7.82,7.83,19.44,9.59,30,10.29,11.84.79,26.37.35,35.24,9.75s5.77,23.79,2.33,34.85C251.19,312,245.35,323,236.35,331c-9.48,8.44-22.56,13.29-35.23,10.73-11.6-2.33-23.1-9.92-32-17.5-4.07-3.45-8.35-8.69-6.22-14.39,1.77-4.73,6.81-5.34,10-1.43,1.74,2.13,2.7,4.79,4.57,6.88,6.32,7.09,16.1,10.83,25.39,11.59,19.62,1.6,37.66-11.81,39.59-31.81.77-7.89-1.28-19-8.57-23.58-4.32-2.71-9.71-2.25-14.55-1.91-6.54.45-13.17,1.42-19.72.67-13.91-1.59-23.12-12.67-27.39-25.3-3.77-11.12-5.82-27.95,5.53-35.48,5.51-3.65,12.85-5,19.17-6.55,7.74-1.89,15.86-3.28,23.77-1.58,7,1.51,13.78,5.24,20,8.76,6.59,3.74,13.86,9.56,12.12,18.13-.64,3.14,4.18,4.48,4.82,1.33Z" transform="translate(-57.56 -66.43)"/><path class="cls-5" d="M198.31,369.09q-.39-88.75-2.19-177.49a12.07,12.07,0,0,1,.85-5.83c2.24-4.35,8.35-4.33,13.2-3.7,5.15,22.3-.66,45.46-2.11,68.31-2.41,38.27,7.55,76.48,5.6,114.77a5.85,5.85,0,0,1-1.1,3.79A5.42,5.42,0,0,1,209,370.3a27.84,27.84,0,0,1-13-1.77" transform="translate(-57.56 -66.43)"/><path class="cls-6" d="M200.81,369.09q-.23-49.36-.87-98.72-.33-24.43-.76-48.86-.21-12-.44-23.93c-.07-3.42-1.35-9.77,1.81-12.15,2.46-1.85,6.8-1.19,9.62-.86l-2.41-1.84c3.63,16.72,1.41,33.69-.53,50.47a266.4,266.4,0,0,0-1.36,48.74c1.09,16.29,3.21,32.49,4.49,48.77.65,8.27,1.09,16.57,1.06,24.87,0,2.62,1.14,10.49-1.76,12.11-3.21,1.78-10-.49-13-1.57s-4.34,3.74-1.33,4.82c4.91,1.76,14.68,4.25,19-.23,1.9-2,1.81-4.94,1.93-7.47.24-5.1.21-10.22.07-15.32-.53-18.56-3-37-4.62-55.46s-2-36.9.09-55.43,4.81-37.13.79-55.63a2.55,2.55,0,0,0-2.41-1.83c-4.83-.56-10.89-.66-14.33,3.43-4.24,5.05-2.1,14.56-2,20.56q.53,27.42.92,54.84.79,55.35,1,110.69c0,3.22,5,3.23,5,0Z" transform="translate(-57.56 -66.43)"/><path class="cls-1" d="M60.54,129.09c3.5,3.54,9.6,3.27,13.76.55s6.72-7.31,8.59-11.92A66.83,66.83,0,0,0,87.45,99.2l0,25.3a9.16,9.16,0,0,0,.68,4.23,8.1,8.1,0,0,0,2.77,2.78,39.31,39.31,0,0,0,13.83,6.07c-6.24-1.16-13-.49-18.43,2.81s-9.28,9.47-8.89,15.81c.11,1.89.14,4.48-1.71,4.9-1-.81-1-2.28-1-3.56a39.74,39.74,0,0,0-4.37-18.89c-2.16-4.21-5.66-8.37-10.38-8.79" transform="translate(-57.56 -66.43)"/><path class="cls-2" d="M58.77,130.86c6.64,5.69,15.76,3.39,21.11-2.93,6.53-7.72,9-19,10.07-28.73H85l0,15.57c0,4.36-.87,9.77.54,14,2.24,6.64,12.54,9.78,18.59,11.27l1.33-4.82c-7.63-1.22-15.74-.53-22.09,4.26a21.73,21.73,0,0,0-6.78,8.42A18.59,18.59,0,0,0,75.09,153c-.13,1,.36,5.45-.62,6l3.42.9c-1.72-2.5-.85-8.63-1.52-11.81A42.34,42.34,0,0,0,73,138.19c-2.51-5.13-6.39-9.74-12.26-10.74-3.15-.53-4.5,4.28-1.33,4.82,6.75,1.15,9.89,8.59,11.54,14.5a39.7,39.7,0,0,1,1.37,9.88c0,2.22,0,3.84,1.29,5.71a2.56,2.56,0,0,0,3.42.9,5.43,5.43,0,0,0,2.93-4.64c.45-3.68,0-6.75,2-10.2,4.49-7.8,13.94-9.76,22.23-8.43,3.1.49,4.52-4,1.33-4.82a40.17,40.17,0,0,1-10.38-4c-4.14-2.37-5.07-5-5.07-9.58L90,99.2c0-3.29-4.65-3.12-5,0a60.78,60.78,0,0,1-5.77,20.68c-2.93,5.75-10.24,13.13-16.87,7.44-2.43-2.08-6,1.44-3.54,3.54Z" transform="translate(-57.56 -66.43)"/><path class="cls-1" d="M360.05,190.45a26.62,26.62,0,0,0,28-27.29c1,7.14.11,14.52,1.81,21.52s7.34,14,14.55,13.64c-7.16-1.1-14.21,3.82-17.65,10.19s-4,13.89-3.91,21.13a123.75,123.75,0,0,0-1.61-19.12c-.44-2.69-1-5.46-2.6-7.67s-3.74-3.45-5.92-4.78l-14.25-8.64" transform="translate(-57.56 -66.43)"/><path class="cls-2" d="M360.05,193a29.6,29.6,0,0,0,30.49-29.79h-5c1.6,13-.62,37.36,18.86,37.66,3.27.06,3.14-4.69,0-5-7.3-.72-14,3.12-18.25,9-5.12,7.16-5.81,16.33-5.81,24.85h5a137.67,137.67,0,0,0-1-15.32c-.52-4-.92-8.47-3.08-12-1.89-3.12-5-5-8-6.85q-6.72-4.1-13.46-8.15c-2.76-1.68-5.27,2.65-2.52,4.31l9.5,5.76c3.3,2,7.66,3.9,9.9,7.13,2.36,3.4,2.59,8.72,3,12.7.44,4.14.65,8.29.71,12.46,0,3.22,5,3.23,5,0,0-11.8,3.22-30.38,19.06-28.82v-5c-15.43-.24-12.64-22.71-13.86-32.66-.39-3.1-5-3.31-5,0A24.55,24.55,0,0,1,360.05,188c-3.22-.07-3.22,4.93,0,5Z" transform="translate(-57.56 -66.43)"/></svg>